<svg width="1818.4523" height="2360.1191" xmlns="http://www.w3.org/2000/svg" version="1.1" xmlns:xlink="http://www.w3.org/1999/xlink" ><path d="M753.6 504.4 L755.4 529.39996 L757.2 570.60004 L758.6 604.39996 L760.0 619.6 L760.80005 634.39996 L761.2 641.8 L760.80005 699.0 L761.2 704.4 L761.8 720.0 L763.2 737.2 L763.6 740.4 L764.0 746.2 L763.6 749.4 L762.60004 755.80005 L761.8 759.0 L761.60004 767.60004 L761.2 769.0 L760.80005 769.4 L760.80005 769.4 L761.2 769.4 L761.8 770.4 L761.8 770.4" stroke="rgb(25,25,25)" stroke-width="1" fill="none" stroke-linejoin="round" /> <path d="M757.60004 770.4 L785.80005 770.0 L858.6 768.6 L918.0 768.6 L934.4 769.4 L965.4 771.8 L981.2 771.8 L1009.80005 770.80005 L1022.2 770.80005 L1043.2 769.80005 L1052.2 769.0 L1064.0 768.6 L1068.2 768.6 L1070.8 769.4 L1074.0 768.6 L1080.4 768.6 L1083.0 768.0 L1085.0 768.0 L1086.2001 768.0 L1086.2001 768.0 L1086.2001 768.0 L1086.2001 768.0" stroke="rgb(25,25,25)" stroke-width="1" fill="none" stroke-linejoin="round" /> <path d="M1084.4 778.6 L1084.0 779.4 L1086.2001 771.2 L1088.2 738.0 L1089.0 717.2 L1089.4 704.80005 L1090.4 648.0 L1092.2 619.6 L1092.6 605.60004 L1093.6 592.2 L1099.0 526.0 L1099.8 517.0 L1100.4 509.0 L1100.4 509.0" stroke="rgb(25,25,25)" stroke-width="1" fill="none" stroke-linejoin="round" /> <path d="M1095.0 480.80002 L1111.8 480.80002 L1134.8 478.6 L1156.2001 476.4 L1168.2 476.19998 L1181.2001 475.2 L1206.8 474.4 L1220.0 474.19998 L1245.0 475.2 L1279.0 476.4 L1289.0 476.19998 L1326.0 477.0 L1348.0 478.0 L1355.3999 478.0 L1380.3999 479.0 L1388.8 479.0 L1406.0 480.2 L1414.4 480.80002 L1431.0 482.40002 L1438.8 482.8 L1470.3999 486.4 L1474.0 486.4 L1478.6 486.0 L1478.6 486.0" stroke="rgb(25,25,25)" stroke-width="1" fill="none" stroke-linejoin="round" /> <path d="M1478.6 488.4 L1478.6 488.4 L1478.8 490.0 L1480.0 501.19998 L1480.2001 505.0 L1479.6001 547.0 L1478.2001 561.0 L1478.0 568.8 L1477.2 584.19995 L1474.6001 647.60004 L1474.4 672.2 L1474.6001 680.0 L1476.0 713.0 L1476.2 721.60004 L1477.6 746.60004 L1478.2001 771.2 L1479.4 796.2 L1480.0 805.80005 L1480.3999 822.60004 L1480.8 839.80005 L1480.0 875.4 L1479.6001 884.0 L1478.8 901.2 L1478.8 910.0 L1479.0 918.0 L1479.6001 944.4 L1479.6001 979.0 L1479.6001 988.0 L1477.6 1025.4 L1477.4 1034.8 L1477.4 1060.0 L1478.2001 1075.8 L1478.8 1083.6 L1479.4 1108.6 L1478.8 1126.2001 L1478.0 1135.0 L1475.8 1162.6 L1474.6001 1172.6 L1473.0 1181.6001 L1471.0 1208.0 L1469.4 1224.4 L1470.2001 1245.8 L1470.2001 1245.8" stroke="rgb(25,25,25)" stroke-width="1" fill="none" stroke-linejoin="round" /> <path d="M1447.2 1244.0 L1441.2 1243.6 L1435.0 1243.6 L1408.8 1241.8 L1401.6001 1240.8 L1393.8 1240.8 L1377.4 1240.0 L1368.6 1239.4 L1350.0 1238.0 L1331.0 1237.2 L1303.6 1236.8 L1275.4 1237.2 L1243.2 1238.0 L1204.0 1239.4 L1188.2 1240.0 L1180.8 1240.4 L1166.6001 1241.2001 L1151.8 1242.2 L1145.0 1242.6 L1129.0 1241.8 L1123.0 1241.2001 L1122.6 1241.6001 L1122.2 1241.6001 L1122.2 1241.6001 L1122.2 1241.6001 L1122.2 1241.6001" stroke="rgb(25,25,25)" stroke-width="1" fill="none" stroke-linejoin="round" /> <path d="M1118.6 1237.2 L1119.0 1238.0 L1118.6 1237.2 L1119.0 1237.6 L1118.6 1236.8 L1119.0 1235.8 L1119.0 1234.4 L1119.0 1232.6 L1118.0 1226.2001 L1118.2 1223.0 L1117.2 1213.0 L1116.6001 1195.0 L1116.2001 1187.6 L1115.8 1180.0 L1115.0 1164.0 L1115.0 1155.8 L1114.4 1140.0 L1113.6 1122.6 L1111.8 1113.6 L1113.0 1105.4 L1112.6 1079.4 L1112.2 1071.8 L1111.8 1050.8 L1111.6001 1044.0 L1110.8 1031.2001 L1111.2001 1024.4 L1110.0 1017.2 L1110.4 997.2 L1110.4 991.60004 L1109.8 979.4 L1109.4 966.2 L1109.4 963.6 L1108.0 957.2 L1107.6 954.0 L1107.6 953.0 L1107.2 952.2 L1106.8 951.2 L1106.8 950.80005 L1106.8 951.2 L1106.8 951.2 L1106.6001 951.60004 L1106.6001 951.60004" stroke="rgb(25,25,25)" stroke-width="1" fill="none" stroke-linejoin="round" /> <path d="M1108.2 954.0 L1109.4 954.4 L1109.4 954.4 L1109.4 954.4 L1109.4 954.80005 L1109.4 954.80005 L1109.4 955.0 L1104.4 955.0 L1089.0 955.80005 L1084.0 956.2 L1067.2 956.60004 L1044.8 957.2 L1035.4 956.8 L967.60004 954.0 L943.0 952.60004 L930.4 952.2 L882.60004 950.80005 L840.4 949.80005 L820.4 950.0 L811.60004 950.0 L803.0 950.4 L785.0 951.2 L776.8 951.2 L765.4 952.2 L760.80005 952.60004 L760.80005 952.60004" stroke="rgb(25,25,25)" stroke-width="1" fill="none" stroke-linejoin="round" /> <path d="M760.0 952.60004 L760.0 953.2 L760.0 953.6 L760.4 955.4 L760.80005 956.8 L760.80005 959.0 L761.60004 961.60004 L762.2 964.0 L762.2 967.2 L763.2 974.80005 L764.4 994.4 L764.4 999.80005 L765.4 1040.4 L764.80005 1048.6 L764.80005 1070.4 L764.80005 1083.0 L765.80005 1096.2001 L766.2 1103.2 L766.2 1117.6 L766.8 1125.0 L766.8 1148.0 L767.2 1188.2 L767.2 1194.4 L766.8 1200.0 L767.60004 1211.2001 L768.0 1231.8 L767.60004 1232.2 L767.60004 1232.2" stroke="rgb(25,25,25)" stroke-width="1" fill="none" stroke-linejoin="round" /> <path d="M771.8 1239.4 L771.8 1239.0 L771.60004 1239.0 L771.2 1239.0 L770.80005 1239.4 L769.80005 1239.4 L769.0 1240.0 L768.2 1240.0 L767.60004 1240.0 L744.4 1240.4 L735.4 1240.8 L725.0 1240.4 L719.0 1240.4 L712.60004 1240.4 L693.0 1239.4 L673.6 1238.6 L666.60004 1238.6 L659.0 1238.6 L644.0 1238.0 L626.8 1237.6 L609.0 1236.8 L600.80005 1236.2001 L569.0 1235.0 L561.8 1235.0 L546.0 1234.4 L487.8 1234.4 L479.59998 1234.4 L463.80002 1234.0 L446.4 1235.0 L428.6 1235.8 L419.0 1236.8 L401.19998 1237.2 L383.6 1238.6 L375.2 1238.6 L351.8 1239.4 L335.80002 1240.4 L327.8 1240.8 L320.2 1241.2001 L291.4 1243.6 L272.80002 1245.0 L266.4 1245.4 L248.4 1246.6001 L242.8 1246.2001 L213.4 1246.8 L200.40001 1245.8 L197.6 1246.2001 L186.20001 1245.8 L184.40001 1246.2001 L182.2 1245.8 L182.2 1245.8 L182.2 1245.8 L182.0 1245.8 L182.0 1245.8" stroke="rgb(25,25,25)" stroke-width="1" fill="none" stroke-linejoin="round" /> <path d="M192.0 1241.2001 L190.0 1208.2 L186.20001 1120.8 L185.59999 1100.0 L186.0 1090.0 L183.0 1027.6 L182.0 997.2 L180.20001 967.2 L179.59999 948.0 L178.6 928.0 L177.8 907.2 L176.20001 875.80005 L175.20001 844.0 L175.20001 833.6 L175.0 823.2 L175.0 771.60004 L177.0 587.4 L177.2 580.80005 L179.2 560.60004 L184.59999 498.6 L185.40001 494.59998 L185.59999 490.40002 L187.0 482.59998 L188.0 479.59998 L192.0 468.80002 L193.4 465.40002 L193.4 465.40002" stroke="rgb(25,25,25)" stroke-width="1" fill="none" stroke-linejoin="round" /> <path d="M181.20001 477.59998 L181.0 477.40002 L181.0 477.40002 L181.20001 477.40002 L181.20001 477.40002 L181.20001 477.40002 L181.20001 477.40002 L181.4 477.40002 L181.8 477.40002 L182.0 477.40002 L182.2 477.40002 L182.8 477.40002 L183.6 477.40002 L184.59999 477.40002 L186.4 477.40002 L190.20001 478.0 L200.40001 477.59998 L211.0 477.2 L237.0 476.8 L251.8 477.0 L267.0 477.40002 L283.6 477.40002 L292.6 477.59998 L327.8 476.19998 L336.8 476.0 L354.19998 476.8 L362.2 477.0 L384.19998 478.4 L421.8 477.8 L450.80002 476.0 L457.0 475.80002 L473.80002 475.80002 L478.80002 476.0 L502.59998 474.0 L515.4 472.8 L528.0 472.40002 L545.2 471.8 L569.0 471.4 L575.2 471.19998 L581.8 471.0 L596.0 470.80002 L603.8 470.80002 L661.2 472.0 L682.60004 473.0 L695.80005 474.0 L708.6 474.0 L720.0 473.4 L739.4 475.6 L740.80005 476.0 L746.8 476.19998 L752.60004 476.4 L753.2 477.40002 L753.6 477.40002 L753.6 478.0 L753.6 478.0" stroke="rgb(25,25,25)" stroke-width="1" fill="none" stroke-linejoin="round" /> <path d="M449.59998 655.80005 L448.80002 656.2 L448.80002 656.2 L448.80002 655.80005 L449.0 655.80005 L449.59998 655.80005 L450.80002 655.80005 L461.19998 655.80005 L464.4 655.80005 L490.0 655.80005 L495.40002 655.0 L511.4 654.4 L533.0 653.6 L549.39996 654.0 L560.2 654.0 L570.60004 654.0 L575.60004 654.0 L604.19995 654.0 L614.39996 654.80005 L620.2 654.80005 L625.80005 654.4 L644.0 655.80005 L649.0 656.60004 L663.2 658.2 L666.8 658.2 L696.8 658.0 L701.2 658.0 L709.0 658.6 L715.0 659.4 L731.60004 659.4 L736.2 659.0 L740.4 659.0 L772.2 656.8 L779.0 656.60004 L781.60004 656.8 L783.2 656.60004 L784.0 656.8 L783.2 656.8 L782.60004 657.2 L781.8 658.0 L781.8 658.0" stroke="rgb(25,25,25)" stroke-width="1" fill="none" stroke-linejoin="round" /> <path d="M434.59998 1107.2 L434.4 1106.8 L434.59998 1106.8 L435.0 1106.6001 L435.40002 1106.8 L436.0 1106.8 L439.0 1106.2001 L443.0 1105.4 L445.80002 1105.0 L456.19998 1102.6 L470.40002 1100.4 L525.4 1092.6 L551.0 1090.8 L568.4 1089.0 L595.60004 1085.4 L604.6 1084.8 L613.4 1084.0 L637.2 1082.6 L644.4 1082.6 L657.2 1082.6 L664.4 1082.2 L678.6 1081.2001 L705.0 1079.4 L711.2 1079.0 L716.2 1079.8 L721.8 1078.6 L726.2 1078.6 L746.60004 1077.6 L755.4 1078.0 L767.2 1078.2 L767.60004 1078.6 L768.0 1078.2 L768.2 1078.6 L774.0 1078.6 L775.0 1077.6 L773.0 1075.8 L773.0 1075.8" stroke="rgb(25,25,25)" stroke-width="1" fill="none" stroke-linejoin="round" /> <path d="M439.0 841.8 L439.0 841.8 L439.0 841.8 L439.19998 841.8 L439.19998 841.8 L439.19998 841.60004 L439.19998 841.60004 L439.0 841.60004 L439.0 841.8 L438.6 841.8 L437.40002 843.0 L432.59998 848.0 L430.40002 850.0 L424.59998 855.80005 L417.40002 863.2 L409.19998 871.60004 L394.59998 882.60004 L389.59998 886.2 L359.59998 909.0 L356.4 911.8 L349.4 919.0 L347.0 922.2 L345.2 919.80005 L345.2 919.80005" stroke="rgb(25,25,25)" stroke-width="1" fill="none" stroke-linejoin="round" /> <path d="M249.2 992.2 L248.79999 992.2 L248.79999 992.2 L247.8 991.8 L246.0 991.2 L237.0 987.2 L235.40001 986.8 L232.8 985.80005 L229.2 982.2 L226.20001 977.2 L224.59999 974.0 L228.6 920.80005 L230.40001 917.2 L232.8 913.6 L242.0 902.60004 L247.8 898.2 L251.0 897.2 L261.0 894.4 L265.0 894.4 L268.6 893.6 L276.2 894.4 L309.4 914.0 L316.4 938.0 L316.4 942.2 L316.2 949.80005 L317.0 958.0 L316.0 960.80005 L312.80002 974.4 L311.2 981.60004 L309.4 984.0 L306.8 989.80005 L305.0 992.2 L303.0 994.0 L299.4 997.2 L297.0 998.0 L295.2 999.4 L289.4 1001.8 L286.2 1003.0 L280.40002 1005.0 L276.2 1005.80005 L274.4 1007.2 L268.6 1008.2 L260.2 1008.0 L253.4 1005.0 L251.20001 1003.6 L250.59999 1003.0 L248.6 1000.80005 L248.4 999.0 L248.4 999.0" stroke="rgb(25,25,25)" stroke-width="1" fill="none" stroke-linejoin="round" /> <path d="M440.40002 846.2 L440.6 846.2 L440.6 846.2 L440.2 846.2 L440.40002 845.80005 L440.2 845.4 L440.2 845.0 L439.59998 844.0 L439.59998 842.2 L439.4 841.8 L439.59998 840.80005 L440.40002 838.6 L440.0 833.2 L440.0 830.0 L439.59998 826.2 L439.19998 805.4 L439.19998 799.80005 L439.19998 788.0 L438.80002 761.2 L438.6 756.2 L437.8 750.80005 L438.0 745.4 L439.4 709.80005 L439.4 705.80005 L439.59998 685.4 L440.2 674.0 L440.80002 667.2 L441.0 663.6 L442.2 637.2 L442.59998 633.8 L442.40002 630.80005 L443.80002 629.0 L444.0 624.0 L444.4 619.19995 L445.0 616.8 L445.40002 608.4 L445.40002 605.80005 L445.80002 602.0 L446.0 599.6 L446.0 597.8 L446.8 597.0 L446.8 594.19995 L446.8 592.2 L446.19998 591.0 L447.2 590.4 L447.2 590.2 L446.8 590.2 L447.2 590.2 L447.2 590.2 L447.2 590.2" stroke="rgb(25,25,25)" stroke-width="1" fill="none" stroke-linejoin="round" /> <path d="M445.0 940.80005 L445.0 941.60004 L444.0 942.2 L445.2 945.4 L445.40002 951.8 L445.2 959.4 L445.40002 964.0 L445.40002 966.8 L445.2 973.2 L445.0 977.2 L444.0 985.0 L442.2 1011.2 L440.80002 1030.0 L440.0 1038.0 L439.4 1046.2001 L439.19998 1050.8 L438.80002 1062.2 L439.0 1066.2001 L437.40002 1093.0 L436.0 1096.2001 L437.2 1103.0 L437.2 1106.2001 L437.0 1113.0 L436.0 1115.8 L436.0 1127.2 L436.0 1130.0 L435.80002 1140.4 L435.80002 1144.8 L435.80002 1149.4 L435.2 1153.6 L435.2 1155.4 L435.2 1157.6 L434.0 1162.6 L432.8 1168.6 L432.8 1170.4 L433.0 1171.2001 L433.0 1171.8 L433.4 1171.8 L433.4 1171.8 L433.0 1172.2 L433.6 1171.8 L433.0 1172.2 L433.0 1172.2 L433.0 1172.2 L433.0 1172.2" stroke="rgb(25,25,25)" stroke-width="1" fill="none" stroke-linejoin="round" /> <path d="M432.0 1171.2001 L431.4 1170.8 L432.0 1169.8 L432.0 1169.8 L432.0 1169.4 L432.0 1169.8 L432.2 1169.8 L432.2 1170.0 L432.2 1170.0 L434.4 1171.2001 L439.0 1174.4 L440.80002 1175.8 L447.8 1179.4 L450.80002 1180.8 L456.19998 1183.6 L462.40002 1187.2 L467.8 1190.8 L471.0 1192.6 L473.80002 1194.4 L490.40002 1207.6 L492.8 1209.4 L494.19998 1210.4 L495.40002 1210.8 L495.6 1210.8 L495.2 1210.8 L495.2 1210.8" stroke="rgb(25,25,25)" stroke-width="1" fill="none" stroke-linejoin="round" /> <path d="M448.4 594.19995 L448.6 594.0 L448.4 593.6 L448.4 593.4 L448.6 592.4 L447.8 592.0 L448.4 592.0 L448.4 591.8 L448.4 591.4 L448.4 591.4 L448.6 591.0 L449.0 590.4 L456.4 582.6 L458.80002 580.80005 L460.80002 579.19995 L465.80002 574.19995 L469.0 572.2 L472.0 569.19995 L475.6 567.2 L488.6 557.0 L492.0 554.19995 L497.40002 549.0 L502.59998 544.19995 L507.59998 539.6 L508.80002 539.19995 L511.19998 537.4 L511.4 537.0 L510.80002 537.0 L511.8 537.2 L511.19998 537.2 L511.0 537.4 L511.0 537.4" stroke="rgb(25,25,25)" stroke-width="1" fill="none" stroke-linejoin="round" /> <path d="M570.0 613.0 L569.6 613.8 L570.2 613.4 L570.4 613.4 L570.60004 612.6 L571.8 610.80005 L572.6 610.0 L575.60004 604.0 L580.4 597.2 L601.4 560.2 L605.0 554.6 L612.4 545.4 L615.2 542.2 L615.80005 541.0 L616.2 540.60004 L616.2 540.80005 L616.2 540.60004 L616.2 540.80005 L616.2 540.80005 L615.80005 540.80005 L616.2 540.80005 L616.2 540.80005 L616.2 540.80005 L617.4 544.0 L618.4 550.0 L621.0 559.0 L623.8 567.8 L625.4 572.4 L633.8 592.0 L636.4 598.6 L637.8 601.8 L639.19995 603.6 L640.0 604.6 L640.0 605.4 L640.0 606.0 L640.0 605.80005 L640.0 605.80005 L640.0 605.80005 L640.0 605.80005 L639.19995 605.80005 L635.0 604.19995 L633.4 604.19995 L631.8 604.6 L626.8 604.6 L621.2 604.39996 L618.6 604.19995 L609.0 604.0 L602.2 604.0 L598.0 604.19995 L594.19995 604.39996 L583.0 603.6 L576.8 603.8 L574.19995 604.0 L571.0 605.4 L569.6 605.60004 L569.6 605.60004" stroke="rgb(25,25,25)" stroke-width="1" fill="none" stroke-linejoin="round" /> <path d="M597.2 1180.4 L597.2 1180.4 L597.4 1180.0 L597.2 1180.0 L598.0 1179.0 L599.19995 1177.2 L601.4 1173.6 L602.6 1171.6001 L605.80005 1164.0 L615.80005 1144.0 L620.80005 1135.0 L622.6 1131.8 L625.80005 1128.2 L626.2 1127.2 L626.8 1126.8 L626.4 1126.8 L626.4 1126.8 L626.4 1126.8 L626.4 1126.8 L626.4 1126.8 L626.4 1126.8 L626.8 1126.8 L627.0 1126.8 L627.4 1128.0 L630.80005 1140.0 L639.6 1172.2 L640.80005 1174.8 L643.6 1179.0 L644.4 1181.2001 L644.80005 1183.0 L644.80005 1183.0 L644.80005 1183.0 L644.4 1183.0 L644.4 1183.0 L644.0 1183.0 L643.6 1183.0 L643.6 1183.0 L643.0 1183.0 L642.2 1182.6 L638.8 1182.6 L636.4 1183.0 L632.0 1183.0 L625.80005 1182.2 L622.4 1181.6001 L612.8 1179.4 L609.0 1179.4 L605.4 1180.4 L604.0 1180.4 L603.4 1180.8 L603.0 1181.2001 L602.4 1181.2001 L602.0 1181.2001 L601.2 1181.2001 L600.80005 1181.6001 L600.2 1181.6001 L599.39996 1181.8 L599.0 1181.8 L599.0 1181.8" stroke="rgb(25,25,25)" stroke-width="1" fill="none" stroke-linejoin="round" /> <path d="M1204.0 1111.2001 L1204.0 1111.2001 L1204.0 1111.2001 L1204.0 1111.6001 L1204.0 1111.6001 L1204.4 1111.2001 L1204.4 1111.2001 L1204.8 1111.2001 L1204.8 1110.8 L1204.8 1111.2001 L1205.0 1111.2001 L1204.8 1111.6001 L1205.0 1111.2001 L1205.4 1111.8 L1205.0 1111.2001 L1204.8 1111.2001 L1205.4 1111.2001 L1205.8 1111.2001 L1207.2 1111.2001 L1208.0 1111.6001 L1209.0 1111.6001 L1210.0 1112.2 L1215.4 1112.6 L1217.6 1112.6 L1219.4 1112.6 L1231.8 1112.6 L1235.0 1112.6 L1248.0 1113.2 L1250.4 1113.6 L1256.2001 1114.4 L1259.4 1114.4 L1267.2 1114.4 L1269.4 1115.0 L1274.8 1115.8 L1277.2 1116.2001 L1288.2001 1114.4 L1299.0 1113.0 L1304.4 1112.2 L1307.2 1112.6 L1309.6001 1112.2 L1312.2 1112.2 L1318.8 1111.8 L1323.2001 1111.2001 L1328.0 1111.2001 L1336.6001 1109.8 L1339.6001 1110.0 L1344.6001 1110.0 L1346.7999 1110.0 L1350.2001 1110.0 L1352.2 1110.4 L1353.8 1110.0 L1356.7999 1110.4 L1358.8 1109.8 L1360.3999 1109.8 L1361.7999 1109.4 L1362.4 1109.4 L1362.6 1109.8 L1362.2 1109.0" stroke="rgb(25,25,25)" stroke-width="1" fill="none" stroke-linejoin="round" /> <path d="M1208.0 1112.6 L1208.0 1112.2 L1207.2 1113.6 L1206.2001 1115.0 L1203.6 1118.2 L1202.2 1120.4 L1196.6001 1127.6 L1184.8 1140.4 L1181.8 1143.6 L1177.2 1148.2 L1173.0 1153.0 L1170.0 1156.8 L1169.0 1158.0 L1168.6 1158.0 L1168.0 1158.2 L1167.2 1159.0 L1166.8 1159.4 L1166.6001 1160.0 L1165.4 1160.8 L1165.4 1160.8" stroke="rgb(25,25,25)" stroke-width="1" fill="none" stroke-linejoin="round" /> <path d="M1350.8 1112.6 L1350.8 1112.6 L1351.0 1112.6 L1351.0 1112.2 L1351.0 1112.2 L1351.0 1112.2 L1351.0 1112.2 L1351.0 1112.2 L1351.0 1112.2 L1351.0 1111.8 L1351.0 1111.2001 L1351.0 1110.4 L1351.0 1109.0 L1350.3999 1107.6 L1350.2001 1102.2 L1350.0 1090.0 L1348.6 1077.2 L1348.6 1073.0 L1346.2 1053.2 L1344.6001 1031.2001 L1343.6 1012.2 L1343.8 1008.0 L1344.6001 1004.4 L1344.0 996.8 L1343.2001 985.4 L1343.0 978.0 L1341.6001 966.2 L1341.6001 958.6 L1342.4 954.0 L1341.6001 945.80005 L1341.6001 929.0 L1342.4 924.4 L1341.6001 919.0 L1341.2 901.2 L1341.2 897.2 L1341.0 885.4 L1341.0 881.60004 L1341.2 873.0 L1341.7999 863.6 L1341.7999 858.6 L1342.4 849.4 L1343.2001 840.4 L1343.8 836.2 L1343.8 831.8 L1344.6001 822.2 L1344.4 817.2 L1346.0 798.0 L1346.6001 793.6 L1346.0 788.6 L1347.2 785.0 L1348.6 758.6 L1350.0 744.4 L1353.2001 715.80005 L1354.6001 706.8 L1355.2001 702.2 L1356.0 693.6 L1357.2 682.60004 L1357.6 667.60004 L1358.8 655.4 L1359.4 652.2 L1361.0 637.4 L1361.2 634.0 L1361.0 620.80005 L1361.6001 611.2 L1361.6001 607.2 L1361.6001 602.6 L1361.6001 599.39996 L1361.6001 599.0 L1361.6001 598.4 L1361.6001 598.8 L1361.6001 598.8 L1361.6001 598.8 L1361.6001 599.0 L1359.0 597.8 L1359.0 597.8" stroke="rgb(25,25,25)" stroke-width="1" fill="none" stroke-linejoin="round" /> <path d="M1363.0 611.0 L1363.0 611.2 L1363.2001 611.4 L1363.0 611.0 L1363.2001 611.0 L1363.2001 611.2 L1363.2001 611.2 L1363.2001 611.0 L1363.2001 611.0 L1363.2001 611.0 L1363.2001 610.80005 L1363.2001 611.0 L1363.0 611.0 L1363.2001 610.80005 L1363.2001 611.0 L1363.2001 610.80005 L1363.0 611.0 L1363.2001 611.0 L1363.2001 611.2 L1363.2001 610.80005 L1363.2001 611.0 L1363.2001 610.80005 L1363.2001 610.80005 L1363.0 611.2 L1362.2 610.80005 L1360.2001 610.60004 L1357.2 610.80005 L1352.4 610.80005 L1351.0 610.4 L1346.7999 610.80005 L1344.6001 610.80005 L1337.2 610.80005 L1318.8 611.4 L1316.0 611.0 L1293.2001 611.0 L1286.6001 611.0 L1275.0 611.4 L1265.0 611.4 L1253.0 611.4 L1250.0 612.2 L1239.8 612.2 L1230.0 612.4 L1225.0 612.2 L1225.0 612.2 L1225.0 612.2 L1225.0 612.2 L1225.4 611.8 L1225.4 612.2 L1225.0 612.2 L1224.8 611.8 L1222.2 611.8 L1220.0 612.4 L1214.4 612.8 L1212.6 612.4 L1210.8 612.4 L1205.4 612.2 L1203.6 612.2 L1201.8 611.4 L1200.8 612.0 L1200.4 611.8 L1198.2 611.8 L1194.4 612.2 L1193.6 612.0 L1193.2 611.8 L1191.8 611.8 L1191.8 611.8 L1191.8 611.4 L1191.8 611.4 L1191.8 611.4 L1191.2001 611.4 L1191.2001 611.4" stroke="rgb(25,25,25)" stroke-width="1" fill="none" stroke-linejoin="round" /> <path d="M1191.2001 617.4 L1191.2001 617.4 L1191.2001 617.4 L1191.2001 616.8 L1190.8 616.8 L1190.8 616.2 L1190.8 616.2 L1190.4 615.80005 L1189.8 615.2 L1189.4 614.19995 L1187.6 611.8 L1186.2001 610.60004 L1183.6 607.4 L1181.2001 605.4 L1176.6001 600.0 L1173.2 596.4 L1164.4 584.19995 L1162.2 581.2 L1157.6 575.4 L1155.8 572.8 L1152.6 569.6 L1151.8 568.8 L1146.6001 563.0 L1146.2001 563.4 L1146.2001 563.4" stroke="rgb(25,25,25)" stroke-width="1" fill="none" stroke-linejoin="round" /> <path d="M1337.6 856.60004 L1338.2001 856.2 L1339.0 856.8 L1339.6001 856.8 L1340.2001 857.2 L1340.0 857.2 L1340.2001 856.8 L1344.6001 857.2 L1351.6001 858.2 L1358.6 858.0 L1367.4 856.8 L1372.4 856.8 L1376.6001 856.2 L1385.2001 855.80005 L1389.4 855.80005 L1402.2 855.80005 L1415.0 855.80005 L1418.8 855.80005 L1426.0 855.80005 L1430.0 855.80005 L1441.6001 855.80005 L1449.6001 855.4 L1451.7999 855.0 L1456.0 855.0 L1458.2001 854.0 L1461.6001 855.4 L1463.2001 855.80005 L1468.8 855.0 L1476.0 854.0 L1477.4 854.4 L1478.2001 854.0 L1479.0 854.4 L1479.6001 854.0 L1481.0 854.4 L1481.6001 854.0 L1481.2 854.0 L1481.6001 854.0 L1482.4 854.4 L1483.2001 854.4 L1484.0 854.4 L1485.8 854.4 L1488.2001 853.6 L1488.2001 853.6 L1488.2001 853.6 L1488.2001 853.6" stroke="rgb(25,25,25)" stroke-width="1" fill="none" stroke-linejoin="round" /> <path d="M1315.2001 1206.6001 L1314.6001 1206.8 L1314.4 1206.6001 L1314.4 1206.8 L1313.2001 1206.2001 L1313.2001 1206.6001 L1313.0 1206.2001 L1312.4 1205.8 L1311.6001 1205.4 L1311.0 1205.0 L1310.3999 1204.4 L1308.6 1202.2 L1307.6 1200.8 L1305.2001 1199.0 L1302.4 1196.6001 L1298.0 1185.8 L1297.4 1183.2 L1297.6 1179.4 L1299.0 1173.0 L1303.2001 1163.0 L1305.0 1161.8 L1308.2001 1158.0 L1311.0 1155.0 L1312.6 1154.0 L1316.0 1153.0 L1321.0 1152.6 L1322.4 1152.6 L1324.0 1152.6 L1325.3999 1153.0 L1327.4 1153.6 L1330.2001 1154.0 L1344.4 1163.0 L1348.8 1171.2001 L1350.0 1173.2 L1350.0 1174.8 L1351.2 1180.8 L1349.6001 1201.6001 L1348.8 1203.0 L1348.8 1203.6 L1348.2001 1203.6 L1347.6 1204.4 L1347.2 1205.4 L1346.2 1206.2001 L1344.6001 1207.2 L1340.2001 1209.4 L1338.2001 1209.8 L1336.7999 1210.0 L1333.6 1210.8 L1331.0 1210.8 L1328.6 1211.2001 L1327.6 1210.4 L1325.8 1209.4 L1320.2001 1206.8 L1313.2001 1204.0 L1312.4 1203.0 L1310.8 1201.8 L1310.2001 1200.8 L1309.6001 1199.4 L1308.2001 1197.2 L1308.2001 1197.2" stroke="rgb(25,25,25)" stroke-width="1" fill="none" stroke-linejoin="round" /> <path d="M447.0 476.0 L447.0 475.80002 L447.0 476.4 L446.19998 475.6 L447.2 476.19998 L446.8 476.0 L447.40002 476.4 L447.40002 476.4 L447.40002 476.4 L447.40002 477.0 L447.40002 477.40002 L447.59998 477.59998 L447.59998 478.6 L447.2 478.6 L447.59998 480.2 L447.59998 480.80002 L447.40002 481.4 L447.40002 482.40002 L447.59998 483.4 L447.40002 485.2 L447.2 488.80002 L446.8 494.0 L446.8 499.0 L446.8 500.6 L446.4 502.40002 L446.8 506.0 L446.4 517.8 L446.8 520.0 L447.40002 522.0 L447.0 523.4 L447.40002 528.0 L447.40002 529.39996 L447.8 531.0 L447.59998 532.4 L447.8 533.6 L447.8 533.8 L447.8 534.0 L447.8 534.0 L448.0 534.0 L448.0 534.0 L448.0 534.0 L448.0 534.0 L448.0 533.8 L448.0 533.6 L447.59998 533.0 L447.59998 533.0" stroke="rgb(25,25,25)" stroke-width="1" fill="none" stroke-linejoin="round" /> <path d="M433.4 1200.8 L433.4 1201.2001 L433.80002 1201.2001 L433.80002 1201.2001 L434.0 1201.2001 L434.0 1201.2001 L434.0 1201.8 L434.0 1202.6 L434.4 1203.2 L435.0 1204.4 L435.0 1204.4 L434.4 1213.6 L434.59998 1229.8 L434.59998 1235.8 L434.59998 1236.8 L435.0 1241.2001 L435.0 1244.4 L435.0 1244.4 L435.0 1244.4 L435.0 1244.4 L435.0 1244.0 L435.0 1244.0 L435.0 1244.0 L434.59998 1243.0 L434.59998 1243.0" stroke="rgb(25,25,25)" stroke-width="1" fill="none" stroke-linejoin="round" /> <path d="M1089.0 601.2 L1088.6 601.2 L1088.2 601.2 L1088.0 601.4 L1088.2 601.4 L1088.6 601.0 L1088.6 601.8 L1089.0 601.8 L1089.4 601.4 L1090.0 601.2 L1091.2001 601.4 L1092.2 601.2 L1099.0 601.0 L1101.8 600.80005 L1107.2 600.80005 L1109.8 601.0 L1124.4 601.8 L1129.8 601.8 L1132.2 601.4 L1135.4 602.0 L1137.2 602.0 L1137.2 602.2 L1136.8 602.2 L1135.4 602.4 L1135.4 602.4" stroke="rgb(25,25,25)" stroke-width="1" fill="none" stroke-linejoin="round" /> <path d="M1106.8 1113.2 L1106.8 1113.2 L1106.8 1113.0 L1107.2 1113.0 L1107.6 1113.0 L1108.0 1112.6 L1108.0 1113.0 L1108.6 1113.0 L1110.0 1112.6 L1111.2001 1112.2 L1112.2 1111.8 L1113.2 1111.8 L1114.4 1111.8 L1115.4 1111.8 L1118.0 1111.8 L1120.0 1111.6001 L1129.8 1111.6001 L1132.2 1111.2001 L1153.0 1110.8 L1158.6 1109.0 L1160.4 1109.0 L1161.8 1108.6 L1163.0 1108.6 L1164.0 1109.0 L1165.4 1108.0 L1165.8 1108.6 L1165.8 1108.6 L1165.8 1109.0 L1165.8 1108.6 L1165.8 1109.0 L1165.8 1109.0 L1165.8 1109.0 L1165.8 1109.0 L1165.8 1109.0 L1165.8 1109.0 L1166.2001 1109.0 L1165.8 1108.6 L1165.8 1109.0 L1165.0 1109.0 L1165.0 1109.0" stroke="rgb(25,25,25)" stroke-width="1" fill="none" stroke-linejoin="round" /> <path d="M1276.8 572.8 L1276.2001 573.0 L1276.2001 573.0 L1276.8 572.8 L1276.8 572.8 L1276.8 572.8 L1276.8 572.8 L1276.8 572.8 L1276.8 572.6 L1276.8 572.6 L1277.2 572.4 L1277.2 571.8 L1277.6 571.0 L1278.6 570.0 L1279.4 569.0 L1280.3999 566.8 L1284.6001 559.6 L1286.0 556.0 L1290.8 548.6 L1295.8 541.4 L1298.0 538.6 L1299.6001 535.80005 L1302.2 531.2 L1303.8 527.4 L1304.0 527.2 L1303.8 527.0 L1304.0 527.0 L1304.0 527.0 L1304.0 527.2 L1303.8 527.0 L1303.8 526.8 L1303.8 526.8 L1304.0 527.0 L1303.8 527.2 L1303.8 526.8 L1303.8 526.8 L1304.0 527.2 L1303.8 526.4 L1304.0 527.2 L1304.0 527.2 L1304.0 527.2 L1304.0 527.2 L1304.4 527.6 L1304.6001 529.0 L1305.2001 530.80005 L1308.0 536.8 L1308.2001 539.0 L1309.6001 541.2 L1311.7999 548.6 L1312.4 551.8 L1312.4 553.8 L1315.0 560.80005 L1315.2001 562.2 L1316.0 563.8 L1316.6001 565.2 L1318.8 567.6 L1319.0 569.0 L1320.0 570.80005 L1320.2001 572.4 L1320.8 573.8 L1320.8 574.19995 L1320.8 574.19995 L1320.8 574.0 L1320.8 574.19995 L1320.8 574.19995 L1320.8 574.0 L1320.3999 574.0 L1320.2001 574.0 L1313.8 574.0 L1311.0 574.0 L1307.4 573.8 L1300.8 573.8 L1284.6001 577.2 L1283.2001 576.8 L1281.2 576.2 L1280.8 576.0 L1279.4 576.0 L1279.0 575.80005 L1278.6 575.80005 L1277.2 576.0 L1276.8 576.0 L1276.2001 576.2 L1276.2001 576.2 L1276.2001 576.4 L1275.8 576.4 L1275.8 576.4" stroke="rgb(25,25,25)" stroke-width="1" fill="none" stroke-linejoin="round" /> </svg>