<svg width="1818.4523" height="2360.1191" xmlns="http://www.w3.org/2000/svg" version="1.1" xmlns:xlink="http://www.w3.org/1999/xlink" ><path d="M280.0 397.0 L280.0 397.0 L280.0 397.2 L280.2 397.2 L280.0 397.2 L280.2 397.40002 L283.4 398.0 L284.59998 399.19998 L289.59998 399.4 L294.2 399.19998 L296.4 399.19998 L301.0 399.59998 L303.6 399.59998 L327.59998 397.40002 L332.59998 397.40002 L342.40002 396.19998 L374.59998 392.8 L384.19998 392.8 L389.4 392.40002 L399.4 392.0 L405.6 391.4 L416.19998 391.0 L437.0 390.6 L441.4 390.80002 L446.4 390.80002 L460.40002 392.0 L465.6 392.2 L489.19998 392.0 L535.4 394.0 L541.0 394.0 L552.0 394.19998 L563.0 394.0 L578.0 394.59998 L582.6 395.40002 L587.0 395.6 L596.2 395.80002 L600.60004 396.4 L640.4 395.80002 L645.80005 396.0 L661.2 396.0 L675.80005 395.2 L680.80005 395.0 L685.80005 395.0 L696.2 393.6 L706.60004 393.6 L723.6 392.40002 L728.6 392.0 L744.0 391.4 L754.0 391.0 L849.80005 387.8 L876.2 389.0 L902.2 390.0 L908.6 389.4 L925.0 390.80002 L930.4 391.0 L1024.0 390.6 L1050.8 389.4 L1151.6001 385.80002 L1255.4 387.0 L1265.8 388.6 L1286.6001 391.0 L1286.6001 391.0" stroke="rgb(25,25,25)" stroke-width="1" fill="none" stroke-linejoin="round" /> <path d="M1295.2001 390.2 L1295.2001 390.0 L1295.2001 390.2 L1295.3999 390.40002 L1296.0 391.19998 L1296.0 390.80002 L1296.0 390.80002 L1295.8 391.0 L1295.3999 401.0 L1294.4 435.80002 L1293.8 440.0 L1293.6 447.8 L1293.6 451.8 L1293.2001 474.0 L1293.6 485.40002 L1293.8 504.0 L1294.0 509.19998 L1294.4 514.19995 L1294.6001 529.19995 L1295.2001 534.6 L1295.3999 545.80005 L1295.3999 550.4 L1295.3999 555.0 L1295.2001 563.4 L1295.3999 577.2 L1295.2001 581.8 L1295.3999 631.8 L1294.6001 639.19995 L1293.8 654.0 L1293.6 660.4 L1293.2001 663.6 L1293.0 666.8 L1292.4 684.0 L1292.2 687.2 L1292.2 694.0 L1291.7999 711.2 L1291.6001 714.4 L1291.0 720.4 L1290.3999 737.60004 L1290.3999 740.80005 L1290.2001 749.4 L1290.0 751.8 L1289.4 759.4 L1289.0 762.2 L1288.8 767.60004 L1288.8 774.4 L1288.0 783.0 L1288.2001 785.4 L1288.6 791.8 L1289.0 794.0 L1289.6001 795.4 L1290.2001 797.60004 L1290.3999 806.2 L1290.3999 809.0 L1292.2 817.60004 L1292.2 817.60004" stroke="rgb(25,25,25)" stroke-width="1" fill="none" stroke-linejoin="round" /> <path d="M1725.0 820.0 L1725.0 820.80005 L1719.6001 964.4 L1719.6001 969.0 L1719.4 980.80005 L1715.2001 1054.0 L1714.0 1073.2 L1713.8 1078.6 L1713.8 1081.2001 L1714.6001 1111.8 L1714.4 1113.6 L1714.4 1139.8 L1714.4 1142.6 L1714.6001 1148.2 L1714.6001 1149.0 L1714.6001 1150.4 L1714.6001 1151.8 L1714.6001 1154.0 L1714.4 1156.2001 L1712.6 1161.2001 L1712.6 1164.0 L1712.4 1166.8 L1711.7999 1175.4 L1711.7999 1186.2001 L1711.6001 1188.6 L1711.6001 1222.6 L1711.2 1223.6 L1711.7999 1227.6 L1712.2 1229.4 L1711.7999 1230.8 L1711.2 1230.0 L1710.8 1229.4 L1710.8 1229.4" stroke="rgb(25,25,25)" stroke-width="1" fill="none" stroke-linejoin="round" /> <path d="M1296.2 818.2 L1296.2 818.2 L1296.6001 818.2 L1296.6001 818.2 L1296.7999 818.0 L1299.0 816.8 L1299.6001 817.2 L1300.2001 816.8 L1341.6001 814.0 L1353.0 813.0 L1356.2 812.60004 L1366.0 811.60004 L1369.6001 811.2 L1379.0 810.80005 L1393.8 809.4 L1431.2 808.6 L1434.6001 808.6 L1440.8 809.0 L1448.0 809.0 L1454.6001 809.4 L1457.4 809.4 L1469.6001 809.4 L1479.6001 809.0 L1482.6 809.4 L1486.2 808.6 L1493.8 808.6 L1511.0 810.0 L1515.0 810.0 L1521.2 810.80005 L1533.2001 810.80005 L1536.6001 811.2 L1540.3999 811.60004 L1546.6001 812.60004 L1553.6 812.60004 L1556.0 813.6 L1559.0 814.0 L1591.2 815.80005 L1594.4 816.2 L1597.4 816.2 L1606.0 816.2 L1618.8 816.2 L1627.2 816.60004 L1632.2 816.8 L1648.8 817.2 L1718.2001 818.6 L1719.0 819.0 L1719.0 819.0" stroke="rgb(25,25,25)" stroke-width="1" fill="none" stroke-linejoin="round" /> <path d="M1710.3999 1235.4 L1710.3999 1235.0 L1710.3999 1235.0 L1711.0 1235.0 L1711.0 1235.0 L1711.0 1235.0 L1711.0 1235.0" stroke="rgb(25,25,25)" stroke-width="1" fill="none" stroke-linejoin="round" /> <path d="M1690.2001 1243.0 L1675.2001 1244.4 L1673.2001 1244.4 L1530.2001 1243.0 L1518.6 1242.2 L1514.6001 1242.2 L1243.0 1230.0 L949.80005 1231.8 L940.4 1232.6 L876.2 1233.0 L800.80005 1233.6 L708.6 1236.8 L693.2 1239.4 L619.6 1244.0 L616.8 1244.4 L541.4 1246.8 L539.39996 1247.2 L538.8 1247.6 L537.2 1248.6 L537.2 1248.6" stroke="rgb(25,25,25)" stroke-width="1" fill="none" stroke-linejoin="round" /> <path d="M528.6 392.59998 L528.6 392.8 L528.6 393.4 L528.8 393.6 L528.6 393.6 L529.0 394.59998 L529.0 396.19998 L528.6 402.0 L528.6 403.80002 L528.6 412.0 L529.0 417.40002 L527.6 419.19998 L528.8 422.0 L529.19995 441.4 L529.39996 444.4 L528.4 465.40002 L528.6 468.6 L527.8 471.4 L528.0 474.19998 L527.8 477.0 L527.6 497.0 L527.4 502.2 L525.80005 507.40002 L525.4 506.19998 L525.4 506.19998" stroke="rgb(25,25,25)" stroke-width="1" fill="none" stroke-linejoin="round" /> <path d="M1550.2001 817.2 L1550.2001 817.2 L1549.6001 818.0 L1549.6001 820.0 L1548.8 822.60004 L1548.2001 828.0 L1548.0 849.0 L1548.0 852.60004 L1549.4 894.80005 L1548.6 908.2 L1548.8 913.0 L1548.2001 921.8 L1547.2 963.2 L1546.0 970.0 L1545.2001 976.8 L1545.0 979.0 L1545.0 982.2 L1545.0 982.60004 L1544.6001 983.0 L1544.6001 984.0 L1545.0 985.0 L1544.6001 985.80005 L1544.4 986.2 L1544.4 986.60004 L1543.8 987.2 L1543.6 987.60004 L1543.2001 987.60004 L1543.2001 986.8 L1542.6 985.4 L1542.6 985.4" stroke="rgb(25,25,25)" stroke-width="1" fill="none" stroke-linejoin="round" /> <path d="M1438.2001 1141.2001 L1440.2001 1140.4 L1441.0 1139.0 L1443.0 1135.8 L1451.6001 1119.8 L1460.2001 1105.8 L1463.0 1101.8 L1468.8 1090.8 L1473.2001 1083.0 L1473.8 1080.8 L1475.2001 1077.6 L1475.3999 1076.8 L1475.8 1075.4 L1476.2 1074.4 L1477.4 1072.6 L1483.8 1087.2 L1491.6001 1111.8 L1492.4 1116.6001 L1493.6 1121.6001 L1497.2 1133.0 L1498.8 1136.6001 L1501.7999 1145.4 L1503.0 1147.6 L1506.0 1154.4 L1506.0 1154.0 L1506.2 1154.4 L1506.2 1154.4 L1506.0 1154.0 L1506.0 1154.4 L1506.0 1154.4 L1506.0 1154.0 L1506.0 1154.0 L1505.8 1154.0 L1505.0 1153.6 L1505.0 1153.6 L1503.2001 1154.0 L1495.2001 1152.6 L1493.2001 1152.6 L1486.0 1153.0 L1478.2001 1151.8 L1466.6001 1149.0 L1463.2001 1148.6 L1460.2001 1148.0 L1454.0 1148.2 L1451.6001 1149.0 L1444.0 1148.0 L1440.2001 1147.2 L1437.4 1146.2001 L1432.6 1145.4 L1430.8 1145.0 L1430.8 1145.0 L1430.8 1145.0 L1427.4 1145.0 L1427.4 1145.0" stroke="rgb(25,25,25)" stroke-width="1" fill="none" stroke-linejoin="round" /> <path d="M332.40002 560.80005 L333.0 560.0 L334.0 558.4 L336.4 553.0 L354.4 516.4 L357.40002 512.2 L362.59998 503.4 L365.2 499.59998 L365.40002 499.4 L365.40002 499.59998 L365.80002 500.0 L365.2 499.4 L365.2 499.4 L365.2 499.4 L365.6 499.59998 L365.40002 499.4 L365.2 499.4 L365.2 499.59998 L365.6 500.0 L365.80002 500.2 L365.6 500.2 L365.6 500.6 L368.6 507.40002 L370.2 510.80002 L380.2 535.4 L382.40002 540.2 L388.80002 553.0 L394.59998 565.4 L393.80002 565.2 L394.0 565.2 L394.0 565.60004 L394.4 565.4 L393.4 565.0 L390.0 564.19995 L389.0 564.0 L370.6 562.8 L367.40002 562.4 L362.0 562.2 L356.19998 561.2 L349.0 560.0 L347.2 559.6 L345.40002 559.19995 L335.6 555.80005 L332.0 556.0 L332.0 556.2 L331.19998 557.4 L331.19998 557.4" stroke="rgb(25,25,25)" stroke-width="1" fill="none" stroke-linejoin="round" /> <path d="M916.2 591.0 L916.2 590.80005 L914.0 590.60004 L905.80005 589.0 L895.4 584.0 L893.6 582.4 L888.6 576.8 L886.60004 574.0 L882.60004 566.4 L881.8 565.60004 L881.60004 563.8 L875.4 547.4 L875.4 541.8 L894.0 500.0 L905.4 492.2 L907.2 490.80002 L912.2 489.0 L918.2 489.0 L937.60004 488.6 L969.0 502.8 L973.6 508.0 L978.6 519.19995 L980.4 523.0 L986.2 542.0 L986.60004 550.80005 L986.2 557.4 L986.2 560.0 L986.2 562.0 L985.80005 565.0 L985.80005 566.8 L985.0 568.8 L984.4 573.4 L983.6 574.6 L976.8 585.4 L975.4 587.0 L970.4 591.0 L969.4 592.2 L967.60004 593.6 L957.60004 596.8 L921.60004 596.4 L921.60004 596.4" stroke="rgb(25,25,25)" stroke-width="1" fill="none" stroke-linejoin="round" /> <path d="M525.0 1250.8 L524.39996 1251.2001 L524.19995 1251.2001 L524.0 1251.6001 L524.19995 1251.6001 L524.6 1251.6001 L525.2 1251.2001 L525.60004 1250.4 L525.80005 1250.0 L526.2 1248.6 L526.8 1248.2 L527.0 1247.6 L527.2 1247.2 L527.4 1245.8 L528.0 1244.8 L528.6 1242.2 L528.6 1241.6001 L527.6 1240.4 L527.2 1234.8 L527.0 1231.8 L526.8 1225.4 L526.4 1215.8 L527.0 1212.6 L527.2 1210.0 L527.6 1196.8 L527.4 1194.4 L527.4 1185.8 L526.2 1183.0 L526.4 1180.4 L524.39996 1170.8 L524.19995 1169.4 L522.4 1156.2001 L522.4 1153.6 L521.8 1148.0 L521.2 1141.8 L521.8 1136.6001 L521.0 1130.4 L520.80005 1127.6 L520.80005 1125.4 L520.0 1119.4 L519.19995 1098.6 L519.6 1095.4 L520.0 1092.2 L520.0 1075.0 L520.0 1071.8 L520.2 1054.8 L520.80005 1052.2 L521.2 1047.6 L521.2 1045.0 L520.80005 1041.8 L520.2 1025.0 L520.60004 1017.2 L520.60004 1009.4 L521.0 991.60004 L521.4 988.2 L521.2 979.4 L521.4 968.6 L521.4 965.0 L522.0 956.8 L521.4 945.0 L521.2 941.60004 L521.4 930.4 L522.0 922.60004 L522.2 914.80005 L522.4 896.2 L522.8 884.80005 L523.0 880.4 L522.8 876.2 L523.6 865.0 L524.0 861.2 L524.0 846.2 L525.4 834.0 L527.4 816.2 L527.8 811.60004 L529.0 798.2 L529.39996 794.4 L530.80005 781.2 L531.2 769.0 L531.4 764.4 L533.4 749.4 L533.8 745.4 L534.0 734.4 L534.0 730.80005 L534.19995 722.2 L534.39996 720.4 L535.2 712.60004 L535.60004 703.6 L535.80005 700.80005 L535.80005 690.80005 L535.80005 681.60004 L535.80005 678.6 L535.80005 675.4 L535.80005 667.2 L535.80005 661.2 L535.4 659.0 L533.6 653.6 L532.4 651.60004 L527.8 641.60004 L526.2 637.6 L526.2 637.6" stroke="rgb(25,25,25)" stroke-width="1" fill="none" stroke-linejoin="round" /> <path d="M511.0 784.4 L511.4 784.4 L512.0 784.4 L512.6 784.4 L513.0 784.4 L514.0 784.4 L517.4 784.0 L520.2 784.0 L524.19995 783.2 L530.80005 783.0 L539.0 781.8 L544.0 781.60004 L567.4 779.0 L581.2 777.60004 L588.6 776.60004 L609.39996 775.0 L615.80005 774.4 L716.2 772.2 L772.2 771.8 L776.8 771.8 L812.2 773.0 L813.2 773.2 L814.80005 773.0 L815.4 773.0 L815.80005 773.0 L815.4 772.60004 L815.4 772.2 L815.4 772.2 L815.4 771.8 L815.4 771.8" stroke="rgb(25,25,25)" stroke-width="1" fill="none" stroke-linejoin="round" /> <path d="M816.2 772.60004 L816.60004 772.2 L818.6 770.0 L822.2 764.4 L825.0 760.4 L880.0 698.2 L890.80005 685.4 L912.60004 659.0 L920.4 649.4 L921.60004 647.60004 L922.60004 646.60004 L923.6 645.4 L924.4 644.4 L924.4 643.6 L924.80005 643.6 L924.80005 643.6 L925.0 644.0 L925.0 643.6 L924.80005 644.0 L924.0 643.6 L924.0 643.6" stroke="rgb(25,25,25)" stroke-width="1" fill="none" stroke-linejoin="round" /> <path d="M939.4 771.2 L940.4 770.80005 L940.80005 770.4 L941.2 770.4 L942.2 770.0 L943.0 770.0 L944.0 770.0 L946.2 770.0 L947.60004 769.4 L951.2 769.4 L956.2 769.0 L963.6 768.2 L984.80005 766.8 L991.2 766.2 L1011.2 764.0 L1030.4 762.60004 L1036.6001 761.8 L1042.6 761.60004 L1079.0 758.6 L1085.0 758.0 L1096.8 757.60004 L1135.8 756.60004 L1141.2001 756.60004 L1146.2001 755.80005 L1156.6001 755.80005 L1166.6001 755.80005 L1171.6001 755.4 L1180.8 755.4 L1185.0 755.80005 L1200.8 755.80005 L1221.6001 755.80005 L1225.4 755.80005 L1232.6 755.80005 L1239.0 755.80005 L1242.2 756.2 L1273.6 756.2 L1281.6001 756.2 L1287.4 755.4 L1289.6001 755.0 L1291.2 754.4 L1291.2 754.4" stroke="rgb(25,25,25)" stroke-width="1" fill="none" stroke-linejoin="round" /> <path d="M526.0 511.19998 L526.0 511.0 L526.0 511.4 L525.80005 511.4 L525.80005 511.4 L525.80005 512.0 L506.19998 537.8 L496.0 549.6 L489.4 556.2 L482.59998 564.0 L475.6 571.0 L472.2 574.39996 L466.19998 580.80005 L463.80002 584.0 L456.8 592.4 L453.80002 595.60004 L447.40002 602.8 L447.2 603.0 L447.2 603.0" stroke="rgb(25,25,25)" stroke-width="1" fill="none" stroke-linejoin="round" /> <path d="M1376.6001 812.2 L1376.2 812.2 L1376.6001 812.2 L1376.2 812.60004 L1376.6001 812.60004 L1376.6001 812.60004 L1376.6001 813.0 L1376.6001 813.0 L1376.6001 817.2 L1374.4 855.80005 L1375.2001 881.60004 L1375.2001 885.4 L1375.8 893.0 L1376.0 900.0 L1376.6001 914.4 L1376.7999 921.8 L1377.2 933.0 L1376.6001 941.2 L1376.0 948.6 L1376.0 955.0 L1375.8 961.60004 L1376.0 968.0 L1376.0 974.80005 L1376.0 974.80005" stroke="rgb(25,25,25)" stroke-width="1" fill="none" stroke-linejoin="round" /> <path d="M1368.6 1233.0 L1369.4 1225.8 L1369.0 1224.4 L1369.4 1223.6 L1369.0 1221.8 L1370.0 1220.8 L1369.4 1219.0 L1369.6001 1217.2 L1369.4 1215.0 L1370.2001 1210.4 L1370.2001 1205.4 L1371.2 1195.0 L1372.2 1189.4 L1372.4 1186.8 L1372.6 1180.8 L1373.2001 1178.2 L1373.2001 1175.4 L1373.8 1163.6 L1374.4 1156.8 L1374.6001 1153.6 L1375.2001 1147.2 L1375.2001 1141.2001 L1375.8 1127.6 L1376.2 1110.8 L1376.7999 1105.0 L1377.6 1095.8 L1378.2001 1090.0 L1378.6 1085.0 L1378.8 1078.6 L1379.0 1076.8 L1379.4 1075.4 L1379.6001 1075.0 L1379.6001 1075.0 L1379.6001 1075.4 L1379.4 1075.4 L1379.0 1075.4 L1378.8 1075.4 L1378.2001 1074.4 L1378.2001 1074.4" stroke="rgb(25,25,25)" stroke-width="1" fill="none" stroke-linejoin="round" /> <path d="M1379.6001 1076.8 L1379.4 1076.6001 L1379.0 1077.2 L1379.0 1077.6 L1378.8 1077.6 L1378.8 1078.0 L1378.8 1078.2 L1378.8 1078.0 L1379.4 1077.2 L1381.0 1075.8 L1382.4 1073.6 L1385.3999 1069.0 L1387.6 1065.8 L1390.2001 1062.2 L1403.2001 1043.2 L1411.0 1030.4 L1418.8 1021.2 L1421.7999 1016.8 L1428.8 1008.0 L1430.2001 1006.2 L1431.7999 1004.4 L1433.6 1001.8 L1434.0 1001.2 L1434.4 1001.2 L1434.0 1001.2 L1434.0 1001.2 L1433.8 1001.2 L1433.8 1001.2 L1433.2001 1000.80005 L1433.2001 1000.80005" stroke="rgb(25,25,25)" stroke-width="1" fill="none" stroke-linejoin="round" /> <path d="M1543.8 1105.0 L1543.8 1105.0 L1543.8 1105.0 L1543.8 1105.0 L1543.8 1105.0 L1543.6 1105.0 L1543.8 1105.0 L1543.8 1105.0 L1544.0 1105.0 L1544.4 1105.4 L1544.6001 1105.0 L1545.2001 1105.4 L1545.2001 1105.4 L1546.0 1105.4 L1546.6001 1105.8 L1547.4 1105.8 L1548.0 1105.8 L1548.6 1105.8 L1550.3999 1106.2001 L1553.8 1105.8 L1555.2001 1105.8 L1556.6001 1105.8 L1558.2001 1106.2001 L1559.6001 1105.8 L1561.0 1106.2001 L1562.4 1106.2001 L1566.0 1106.2001 L1570.2001 1106.2001 L1574.0 1106.2001 L1576.0 1105.8 L1579.4 1105.8 L1581.0 1106.2001 L1586.0 1106.2001 L1589.4 1106.2001 L1591.6001 1106.2001 L1595.3999 1105.8 L1599.6001 1105.4 L1620.3999 1103.6 L1622.4 1103.6 L1627.4 1103.2 L1640.2001 1102.2 L1642.6 1102.2 L1646.6001 1102.2 L1648.8 1101.2001 L1654.0 1100.8 L1664.6001 1101.2001 L1669.4 1101.2001 L1671.2 1101.8 L1675.8 1101.6001 L1689.6001 1101.6001 L1696.0 1101.2001 L1698.2001 1101.2001 L1698.8 1100.8 L1701.6001 1101.2001 L1702.6 1101.2001 L1703.8 1101.6001 L1704.4 1101.6001 L1706.7999 1101.2001 L1713.6 1100.0 L1716.0 1100.0 L1715.8 1100.0 L1715.3999 1100.4 L1715.0 1100.4 L1715.0 1100.4" stroke="rgb(25,25,25)" stroke-width="1" fill="none" stroke-linejoin="round" /> <path d="M528.8 643.2 L528.6 643.0 L528.8 643.0 L528.6 643.0 L528.4 642.60004 L528.0 642.60004 L527.8 642.60004 L527.0 643.0 L527.0 642.60004 L525.60004 643.0 L525.2 643.0 L517.0 643.6 L512.2 644.4 L505.80002 644.4 L502.40002 644.80005 L491.0 645.0 L482.0 644.4 L472.8 644.0 L468.4 644.0 L459.19998 644.0 L455.0 644.0 L442.2 644.4 L433.0 644.80005 L428.80002 644.4 L418.80002 644.4 L408.6 645.0 L394.59998 645.80005 L377.8 646.60004 L355.40002 647.60004 L315.8 650.0 L307.0 650.4 L302.6 651.2 L295.40002 652.2 L291.2 651.2 L289.2 651.2 L287.0 651.2 L285.0 651.60004 L281.0 651.60004 L279.4 651.2 L278.8 651.2 L278.8 651.60004 L278.6 651.2 L279.4 651.2 L279.4 651.2" stroke="rgb(25,25,25)" stroke-width="1" fill="none" stroke-linejoin="round" /> <path d="M272.19998 655.0 L272.0 655.0 L272.0 655.0 L272.19998 653.6 L273.0 650.4 L273.6 648.0 L273.8 646.8 L273.4 641.2 L273.4 637.4 L273.6 623.0 L274.2 577.4 L274.4 570.80005 L275.2 530.0 L275.8 512.6 L276.2 506.8 L276.0 495.2 L276.4 479.0 L277.19998 474.0 L279.2 460.0 L278.8 455.40002 L280.0 452.2 L282.0 437.40002 L282.80002 435.0 L282.80002 431.19998 L283.4 427.40002 L284.59998 420.40002 L285.40002 416.4 L286.2 408.80002 L286.8 406.0 L287.80002 401.8 L287.80002 401.0 L287.80002 401.19998 L287.6 401.4 L286.8 402.40002 L286.8 402.40002" stroke="rgb(25,25,25)" stroke-width="1" fill="none" stroke-linejoin="round" /> </svg>