<svg width="1818.4523" height="2360.1191" xmlns="http://www.w3.org/2000/svg" version="1.1" xmlns:xlink="http://www.w3.org/1999/xlink" ><path d="M435.2 396.8 L436.4 397.0 L441.0 397.40002 L447.0 397.2 L450.2 396.4 L453.6 396.4 L457.59998 396.19998 L462.0 396.8 L482.59998 396.0 L489.0 396.0 L502.0 396.8 L508.80002 396.8 L550.2 395.80002 L578.0 393.0 L616.8 392.40002 L625.60004 392.8 L635.0 393.4 L653.6 393.4 L663.2 393.4 L704.4 392.40002 L756.8 391.4 L777.60004 392.40002 L788.2 392.40002 L799.0 392.8 L833.0 392.2 L892.2 391.4 L904.4 391.8 L916.60004 390.6 L929.0 392.0 L968.2 392.2 L981.8 392.0 L1036.8 391.8 L1064.4 391.8 L1107.2 391.19998 L1121.8 390.80002 L1165.8 390.0 L1180.4 389.0 L1236.8 387.40002 L1250.4 387.40002 L1276.8 390.0 L1316.0 392.40002 L1353.8 394.19998 L1378.0 394.59998 L1398.8 395.80002 L1408.0 395.80002 L1421.6001 397.59998 L1425.3999 397.8 L1428.2001 398.80002 L1431.7999 400.80002 L1438.2001 401.8 L1438.2001 401.8" stroke="rgb(25,25,25)" stroke-width="1" fill="none" stroke-linejoin="round" /> <path d="M1437.4 399.0 L1437.4 400.2 L1437.4 400.80002 L1437.4 403.6 L1437.2 405.2 L1437.2 406.19998 L1437.2 409.0 L1437.2 410.80002 L1437.4 427.8 L1437.2 460.40002 L1437.4 465.2 L1436.7999 475.2 L1436.7999 485.40002 L1436.6001 500.80002 L1434.4 586.2 L1434.4 598.4 L1434.6001 604.39996 L1434.6001 616.4 L1432.6 672.2 L1432.4 679.4 L1431.7999 700.80005 L1430.2001 762.2 L1429.6001 770.0 L1428.2001 786.60004 L1426.6001 819.4 L1426.0 828.0 L1426.2 836.2 L1425.2001 844.4 L1425.8 861.2 L1426.0 885.0 L1426.2 893.2 L1426.0 901.60004 L1424.6001 928.6 L1424.6001 937.60004 L1423.0 1082.6 L1422.2 1099.4 L1421.0 1128.0 L1420.2001 1151.2001 L1420.2001 1156.6001 L1418.8 1169.4 L1418.2001 1173.2 L1417.4 1177.6 L1413.8 1186.8 L1413.8 1186.8" stroke="rgb(25,25,25)" stroke-width="1" fill="none" stroke-linejoin="round" /> <path d="M1414.6001 1183.6 L1414.4 1184.0 L1414.0 1184.0 L1413.8 1184.0 L1412.6 1184.4 L1406.0 1185.0 L1389.0 1186.2001 L1384.0 1186.2001 L1349.6001 1184.0 L1331.0 1182.6 L1288.2001 1180.0 L1276.8 1179.0 L1242.2 1175.4 L1218.6 1172.6 L1206.6001 1171.2001 L1181.6001 1168.2 L1168.2 1167.2 L1141.6001 1165.0 L1114.8 1163.2 L1101.6001 1162.2 L1063.0 1159.0 L1038.6 1157.2 L1014.4 1154.4 L1001.8 1153.6 L964.0 1151.6001 L910.4 1149.0 L881.8 1148.2 L868.0 1148.6 L801.2 1149.0 L775.80005 1148.6 L763.2 1148.2 L738.0 1147.6 L725.0 1146.8 L685.80005 1145.4 L659.0 1145.8 L645.80005 1145.4 L619.6 1145.4 L606.4 1145.0 L569.19995 1146.2001 L545.80005 1146.6001 L484.4 1145.4 L468.6 1144.4 L468.6 1144.4" stroke="rgb(25,25,25)" stroke-width="1" fill="none" stroke-linejoin="round" /> <path d="M445.80002 1147.2 L445.6 1147.6 L445.0 1147.2 L445.2 1147.2 L445.2 1145.8 L445.2 1144.4 L445.2 1140.8 L445.40002 1138.6 L445.6 1135.8 L445.80002 1129.4 L443.0 1076.2001 L443.80002 1069.0 L443.0 1044.4 L442.8 1035.0 L442.59998 1025.4 L441.19998 984.4 L440.80002 965.0 L440.2 946.2 L439.4 936.60004 L436.8 866.8 L436.4 856.8 L435.40002 815.80005 L434.59998 754.80005 L434.59998 744.80005 L435.2 734.4 L434.0 713.6 L434.19998 704.4 L433.80002 695.0 L432.40002 666.8 L432.40002 657.60004 L431.8 610.0 L432.0 574.19995 L432.0 544.0 L432.0 536.8 L432.2 529.0 L433.4 514.0 L434.0 500.6 L434.59998 494.0 L438.0 450.2 L439.0 445.0 L442.2 415.40002 L442.0 410.0 L440.40002 392.8 L439.19998 386.8 L439.19998 386.8" stroke="rgb(25,25,25)" stroke-width="1" fill="none" stroke-linejoin="round" /> <path d="M430.6 654.4 L430.80002 654.4 L431.0 654.4 L432.0 654.0 L432.59998 654.4 L433.0 654.4 L433.80002 654.4 L434.4 654.4 L435.40002 654.80005 L436.0 655.0 L438.4 655.4 L440.0 656.2 L457.40002 655.80005 L482.0 655.0 L489.0 655.0 L505.0 654.0 L600.4 646.8 L629.0 645.80005 L642.60004 645.80005 L667.60004 645.0 L690.80005 645.4 L721.2 645.0 L730.0 644.80005 L760.80005 644.80005 L780.4 645.0 L783.6 645.0 L784.4 645.80005 L784.0 645.80005 L784.0 645.80005" stroke="rgb(25,25,25)" stroke-width="1" fill="none" stroke-linejoin="round" /> <path d="M983.6 652.60004 L983.2 652.2 L983.2 652.2 L990.0 651.2 L995.0 651.2 L998.0 651.60004 L1001.8 651.2 L1010.4 651.60004 L1021.8 650.80005 L1028.6 650.0 L1036.2001 650.4 L1052.6 648.6 L1061.8 648.0 L1091.6001 646.2 L1112.6 645.0 L1123.0 644.4 L1144.0 644.4 L1176.2001 643.2 L1218.6 641.8 L1228.6 641.2 L1247.6 640.80005 L1272.2 640.0 L1287.4 640.0 L1313.6 640.0 L1325.8 640.0 L1331.0 640.0 L1345.0 640.0 L1367.4 640.4 L1371.6001 640.4 L1387.4 640.80005 L1420.0 640.80005 L1421.0 640.4 L1421.7999 640.0 L1421.7999 640.0" stroke="rgb(25,25,25)" stroke-width="1" fill="none" stroke-linejoin="round" /> <path d="M790.4 650.4 L790.80005 650.0 L791.2 649.4 L791.8 648.6 L793.6 647.2 L794.80005 645.80005 L797.2 643.0 L799.4 641.2 L802.2 638.6 L809.4 630.80005 L846.2 597.8 L851.8 593.4 L857.2 588.4 L877.2 569.6 L881.8 565.60004 L885.4 562.4 L901.2 547.8 L903.0 546.0 L906.2 543.8 L907.2 543.0 L908.0 542.4 L910.0 540.80005 L910.80005 540.4 L911.2 539.6 L911.8 539.19995 L912.2 538.8 L913.0 537.8 L914.0 537.4 L914.80005 537.0 L915.0 536.8 L915.4 536.8 L915.4 536.8 L915.4 536.8" stroke="rgb(25,25,25)" stroke-width="1" fill="none" stroke-linejoin="round" /> <path d="M1139.0 638.8 L1139.0 638.6 L1139.4 638.4 L1139.4 638.4 L1139.4 638.4 L1139.4 638.6 L1139.8 638.8 L1140.0 639.19995 L1140.4 641.60004 L1140.4 643.6 L1139.0 665.80005 L1138.6 669.0 L1138.6 680.80005 L1138.6 689.0 L1138.6 699.4 L1138.2 714.4 L1138.2 724.0 L1138.2 744.4 L1138.2 750.4 L1138.6 768.0 L1138.2 806.8 L1138.6 810.0 L1140.8 819.4 L1141.2001 822.60004 L1140.4 830.80005 L1140.4 830.80005" stroke="rgb(25,25,25)" stroke-width="1" fill="none" stroke-linejoin="round" /> <path d="M1131.2001 1166.2001 L1131.2001 1166.2001 L1130.8 1166.2001 L1131.2001 1166.2001 L1131.6001 1166.2001 L1131.8 1164.4 L1131.8 1162.6 L1130.8 1151.2001 L1130.8 1138.2 L1131.6001 1115.0 L1131.8 1102.6 L1131.8 1095.4 L1135.0 1043.6 L1135.8 1021.8 L1135.8 1009.0 L1135.4 994.80005 L1135.8 987.60004 L1136.2001 981.2 L1136.8 970.4 L1136.8 966.8 L1137.2 964.0 L1137.2 960.4 L1136.8 958.6 L1136.8 958.2 L1136.6001 957.60004 L1135.8 957.2 L1135.8 957.2 L1135.4 958.0 L1135.4 958.0" stroke="rgb(25,25,25)" stroke-width="1" fill="none" stroke-linejoin="round" /> <path d="M1139.0 957.60004 L1140.8 956.2 L1149.8 950.0 L1158.6 941.8 L1164.0 937.2 L1204.4 905.4 L1222.2 891.8 L1227.6 887.60004 L1237.2 880.80005 L1244.4 876.2 L1249.0 872.2 L1250.4 871.2 L1251.8 870.80005 L1252.6 870.0 L1253.0 869.0 L1253.0 869.4 L1252.6 869.80005 L1252.6 869.4 L1252.2 869.80005 L1252.2 869.80005" stroke="rgb(25,25,25)" stroke-width="1" fill="none" stroke-linejoin="round" /> <path d="M689.4 636.0 L689.0 636.2 L689.4 636.2 L689.80005 637.2 L690.0 640.0 L692.60004 652.2 L692.60004 654.80005 L694.80005 693.2 L695.0 697.60004 L695.0 705.4 L695.80005 713.6 L695.80005 718.0 L695.80005 731.2 L696.2 759.0 L696.60004 776.8 L696.2 780.80005 L696.2 790.0 L696.60004 798.0 L696.8 801.8 L697.2 806.8 L698.6 816.8 L698.6 816.8" stroke="rgb(25,25,25)" stroke-width="1" fill="none" stroke-linejoin="round" /> <path d="M693.2 1147.6 L693.0 1143.2 L692.60004 1139.4 L692.60004 1136.6001 L692.60004 1133.6 L692.60004 1123.0 L692.60004 1113.6 L693.0 1109.0 L692.60004 1095.0 L691.8 1090.4 L692.60004 1085.4 L693.0 1080.4 L693.0 1068.0 L693.6 1062.2 L693.6 1038.6 L694.4 1020.80005 L695.4 1007.60004 L695.80005 1002.60004 L696.8 993.6 L697.2 989.80005 L697.60004 984.0 L698.0 979.0 L698.2 976.2 L698.0 973.2 L698.6 969.0 L698.6 966.8 L699.0 965.0 L699.4 962.60004 L699.80005 961.2 L699.4 961.8 L698.2 962.60004 L698.2 962.60004" stroke="rgb(25,25,25)" stroke-width="1" fill="none" stroke-linejoin="round" /> <path d="M696.8 959.80005 L696.8 958.0 L695.0 955.4 L694.0 954.0 L692.60004 952.60004 L688.6 948.0 L686.2 945.4 L683.2 942.60004 L670.80005 930.4 L666.2 925.80005 L661.2 921.2 L646.2 906.8 L635.2 898.6 L629.39996 893.6 L618.6 884.4 L601.0 869.0 L596.2 865.0 L587.8 857.60004 L586.4 856.2 L585.80005 856.2 L584.19995 854.4 L584.39996 854.4 L584.19995 854.0 L582.8 852.60004 L582.8 852.60004" stroke="rgb(25,25,25)" stroke-width="1" fill="none" stroke-linejoin="round" /> <path d="M1207.2 384.4 L1207.2 386.19998 L1207.6 386.8 L1207.2 389.4 L1207.6 390.6 L1207.6 392.40002 L1207.6 398.0 L1208.0 400.6 L1209.0 407.0 L1209.0 410.6 L1209.8 418.6 L1210.0 427.40002 L1210.4 434.59998 L1210.4 442.40002 L1210.0 450.80002 L1210.0 455.0 L1210.4 459.4 L1209.4 483.6 L1209.0 495.80002 L1209.0 495.80002" stroke="rgb(25,25,25)" stroke-width="1" fill="none" stroke-linejoin="round" /> <path d="M1205.4 646.60004 L1205.0 646.2 L1205.4 645.80005 L1205.4 645.80005 L1205.4 645.4 L1205.8 644.0 L1206.2001 643.2 L1206.2001 642.60004 L1206.2001 641.8 L1206.6001 640.4 L1206.2001 638.8 L1207.2 631.8 L1207.2 629.19995 L1207.6 626.2 L1208.0 621.0 L1208.0 617.6 L1208.6 614.39996 L1211.2001 584.0 L1210.8 582.8 L1210.8 582.8 L1210.8 582.8 L1210.8 583.0 L1210.8 583.0 L1210.8 583.0" stroke="rgb(25,25,25)" stroke-width="1" fill="none" stroke-linejoin="round" /> <path d="M1215.4 579.0 L1215.0 579.19995 L1214.8 579.6 L1214.4 580.2 L1214.4 580.4 L1214.4 580.2 L1214.4 580.2 L1214.4 579.6 L1214.0 579.6 L1214.4 579.6 L1214.8 579.39996 L1215.4 579.0 L1217.2 577.4 L1221.8 574.0 L1238.2 561.0 L1244.4 556.8 L1263.0 541.4 L1263.0 541.4" stroke="rgb(25,25,25)" stroke-width="1" fill="none" stroke-linejoin="round" /> <path d="M1251.8 1038.6 L1251.2001 1039.4 L1250.8 1039.8 L1250.8 1040.0 L1250.8 1040.0 L1251.2001 1040.4 L1250.8 1040.0 L1251.2001 1040.0 L1251.6001 1039.4 L1252.2 1038.6 L1254.4 1035.8 L1255.8 1033.6 L1257.6 1031.2001 L1281.2 998.0 L1289.6001 985.4 L1293.6 980.4 L1299.0 972.60004 L1301.0 970.4 L1301.7999 968.6 L1302.4 968.0 L1302.4 968.2 L1302.6 968.6 L1302.4 968.2 L1302.4 968.6 L1304.4 972.60004 L1305.2001 975.0 L1308.6 982.60004 L1317.4 1005.4 L1321.0 1015.0 L1322.6 1019.0 L1326.0 1026.2001 L1330.2001 1035.4 L1331.0 1038.2 L1331.6001 1041.2001 L1333.2001 1045.0 L1333.8 1045.8 L1334.0 1046.2001 L1334.0 1045.8 L1334.0 1046.2001 L1334.6001 1046.6001 L1334.0 1045.8 L1333.8 1045.4 L1333.0 1044.8 L1331.0 1043.6 L1328.8 1043.2 L1325.8 1042.6 L1324.4 1042.6 L1322.4 1042.2 L1318.2001 1042.6 L1307.6 1042.2 L1305.0 1042.2 L1301.7999 1042.6 L1278.6 1039.4 L1275.8 1039.0 L1272.6 1038.2 L1270.0 1038.6 L1266.8 1038.0 L1264.4 1037.2 L1261.8 1036.8 L1259.0 1036.2001 L1254.4 1036.2001 L1252.6 1036.6001 L1251.2001 1036.8 L1248.6 1036.8 L1248.0 1037.2 L1247.6 1037.2 L1247.2 1037.6 L1247.2 1037.2 L1247.2 1037.2" stroke="rgb(25,25,25)" stroke-width="1" fill="none" stroke-linejoin="round" /> <path d="M518.8 769.80005 L518.6 770.80005 L518.6 770.80005 L518.8 770.80005 L519.0 770.4 L519.0 770.4 L519.6 769.4 L521.0 767.60004 L522.0 765.4 L527.6 755.4 L552.6 715.0 L557.4 706.60004 L559.0 704.0 L560.2 700.80005 L560.4 700.80005 L560.2 700.80005 L560.2 700.80005 L560.2 700.80005 L560.2 700.80005 L560.2 700.80005 L560.2 700.4 L560.2 700.80005 L560.2 700.4 L560.2 700.80005 L560.2 700.4 L560.2 700.4 L560.2 700.80005 L560.2 700.80005 L560.2 700.80005 L560.2 700.80005 L560.4 700.80005 L560.60004 701.60004 L561.0 702.2 L564.0 710.0 L565.80005 714.80005 L572.2 730.4 L574.19995 734.0 L578.8 743.2 L583.8 753.2 L585.0 757.2 L586.2 760.80005 L590.4 770.0 L592.4 773.2 L592.4 773.6 L592.8 774.4 L593.0 774.4 L592.8 774.0 L592.8 774.0 L592.8 774.0 L592.6 774.0 L592.6 773.6 L592.8 774.0 L592.8 775.0 L592.6 773.6 L592.4 773.6 L592.2 773.6 L591.0 773.0 L557.6 770.0 L546.8 771.2 L541.2 771.2 L537.0 770.80005 L532.8 770.0 L527.0 769.4 L525.80005 768.6 L523.0 769.0 L522.4 769.0 L521.2 769.80005 L520.80005 769.80005 L520.2 770.0 L519.39996 770.4 L516.8 771.8 L516.8 771.8" stroke="rgb(25,25,25)" stroke-width="1" fill="none" stroke-linejoin="round" /> <path d="M746.60004 586.4 L745.80005 586.8 L745.4 586.4 L744.0 587.2 L743.2 587.2 L742.2 587.4 L740.4 587.4 L736.8 586.4 L734.0 585.80005 L731.8 585.0 L728.0 584.0 L726.2 583.6 L723.0 582.4 L718.6 580.0 L716.2 578.4 L713.6 575.4 L712.2 574.0 L710.80005 572.2 L709.0 569.0 L707.60004 565.2 L706.2 559.0 L705.0 546.2 L706.2 537.2 L706.8 534.6 L709.0 527.2 L711.8 521.8 L713.2 519.0 L715.0 516.2 L716.8 514.0 L727.60004 505.0 L729.4 503.4 L741.2 498.0 L743.6 497.40002 L746.2 496.0 L751.2 495.40002 L769.0 496.8 L775.80005 500.2 L778.6 501.19998 L788.0 507.8 L790.4 510.0 L794.4 514.19995 L799.80005 523.6 L802.2 528.4 L804.0 532.8 L804.4 534.39996 L808.6 558.8 L806.2 569.6 L805.80005 571.8 L805.80005 574.19995 L804.0 577.4 L803.0 580.4 L801.8 581.4 L799.4 584.6 L797.60004 587.0 L793.0 591.0 L791.60004 592.4 L790.0 593.4 L786.8 595.2 L785.4 595.80005 L781.8 597.0 L781.2 597.2 L777.60004 597.8 L776.8 597.8 L775.80005 598.0 L768.0 597.8 L766.8 598.0 L765.4 597.6 L761.60004 597.8 L756.8 597.4 L755.80005 597.4 L755.80005 597.4" stroke="rgb(25,25,25)" stroke-width="1" fill="none" stroke-linejoin="round" /> </svg>