<svg width="1818.4523" height="2360.1191" xmlns="http://www.w3.org/2000/svg" version="1.1" xmlns:xlink="http://www.w3.org/1999/xlink" ><path d="M271.2 479.19998 L270.40002 479.19998 L270.0 479.4 L270.0 479.4 L270.2 479.59998 L270.40002 479.59998 L271.0 480.0 L271.2 480.0 L272.80002 480.2 L278.4 480.6 L280.2 480.80002 L282.0 481.8 L305.0 481.0 L310.40002 480.80002 L329.0 479.4 L343.6 478.4 L351.8 477.40002 L388.0 473.0 L397.40002 472.8 L407.40002 472.2 L426.4 470.80002 L445.40002 470.0 L453.6 469.4 L469.59998 469.0 L485.40002 469.0 L492.59998 468.80002 L514.19995 467.8 L528.4 466.8 L535.0 466.19998 L548.0 465.2 L555.4 465.0 L576.2 464.0 L583.8 463.6 L598.4 463.6 L619.0 464.19998 L626.2 464.0 L646.2 465.6 L666.8 465.80002 L686.8 465.80002 L693.0 466.0 L706.8 466.19998 L713.6 465.80002 L732.2 466.19998 L744.0 465.80002 L749.4 465.80002 L769.0 465.40002 L773.2 465.2 L783.6 465.6 L794.80005 466.0 L796.2 466.0 L801.8 466.4 L807.2 467.2 L812.60004 467.40002 L812.60004 467.40002 L812.60004 467.40002" stroke="rgb(25,25,25)" stroke-width="1" fill="none" stroke-linejoin="round" /> 

<path d="M814.80005 465.2 L814.80005 465.80002 L815.0 466.0 L815.0 465.80002 L815.0 466.8 L816.2 470.80002 L816.8 484.59998 L818.0 497.2 L818.0 500.2 L819.4 516.4 L819.0 519.39996 L819.80005 526.2 L819.4 536.0 L818.6 550.0 L819.0 553.4 L818.6 570.2 L818.0 573.8 L818.6 577.8 L819.0 596.8 L819.0 610.60004 L818.6 619.6 L818.6 624.0 L818.6 627.6 L819.0 642.2 L818.0 671.8 L818.0 676.8 L817.60004 683.2 L819.4 712.60004 L819.80005 729.0 L821.8 773.6 L820.80005 781.2 L820.4 808.2 L820.4 808.2" stroke="rgb(25,25,25)" stroke-width="1" fill="none" stroke-linejoin="round" /> <path d="M816.8 813.2 L814.0 813.6 L818.2 815.4 L819.4 815.4 L820.80005 815.80005 L822.2 815.80005 L826.8 816.2 L835.4 815.80005 L839.4 815.4 L853.6 815.0 L876.8 813.0 L950.80005 808.2 L965.80005 807.60004 L1004.4 806.60004 L1019.4 805.4 L1029.4 805.4 L1034.4 805.0 L1059.0 805.4 L1095.4 804.0 L1098.2 804.0 L1108.6 804.0 L1110.4 803.6 L1120.8 804.0 L1121.8 804.0 L1121.8 804.4 L1122.2 804.0 L1121.8 804.0 L1121.6001 803.2 L1121.6001 803.2" stroke="rgb(25,25,25)" stroke-width="1" fill="none" stroke-linejoin="round" /> <path d="M1117.2 806.8 L1117.2 806.8 L1117.2 807.2 L1117.2 806.8 L1117.6 806.8 L1117.6 806.2 L1118.0 805.80005 L1118.2 805.4 L1118.2 805.4 L1118.6 805.4 L1118.6 805.0 L1119.0 804.4 L1118.6 801.8 L1118.2 792.60004 L1118.0 775.0 L1117.2 758.0 L1117.2 751.8 L1116.2001 733.0 L1115.8 726.2 L1116.2001 705.80005 L1115.8 699.0 L1116.2001 694.0 L1116.8 670.80005 L1117.2 666.2 L1118.0 650.4 L1118.2 645.0 L1118.6 634.0 L1119.0 625.2 L1119.4 621.0 L1119.8 617.2 L1120.8 589.6 L1121.2001 585.4 L1121.8 572.4 L1122.6 568.4 L1123.2 556.4 L1123.6 548.0 L1124.0 544.39996 L1124.8 527.4 L1125.8 506.0 L1126.2001 502.40002 L1126.8 490.80002 L1127.6 479.19998 L1128.6 474.19998 L1129.0 472.0 L1129.0 470.6 L1129.0 467.40002 L1129.4 467.8 L1129.0 467.40002 L1129.0 467.40002 L1129.0 467.40002 L1129.0 467.40002 L1128.6 467.59998 L1128.6 467.59998" stroke="rgb(25,25,25)" stroke-width="1" fill="none" stroke-linejoin="round" /> <path d="M1125.0 470.6 L1125.0 470.40002 L1125.4 470.0 L1127.2 469.59998 L1143.0 468.80002 L1147.6 469.0 L1204.4 464.0 L1211.8 463.4 L1274.4 460.6 L1281.0 460.40002 L1306.0 460.0 L1312.4 460.2 L1325.2001 460.40002 L1332.4 460.2 L1339.6001 460.2 L1383.6 460.40002 L1387.4 460.2 L1398.2001 460.6 L1409.6001 460.80002 L1414.6001 460.80002 L1428.8 461.19998 L1438.6 462.0 L1443.2001 462.2 L1447.6 462.0 L1456.0 463.0 L1460.8 462.8 L1486.6001 465.40002 L1491.6001 466.0 L1518.0 467.59998 L1537.4 469.0 L1541.0 470.2 L1547.4 470.6 L1550.2001 470.80002 L1551.6001 471.0 L1552.2 471.19998 L1551.6001 471.4 L1551.7999 471.19998 L1551.7999 471.19998 L1551.0 470.40002 L1551.0 470.40002" stroke="rgb(25,25,25)" stroke-width="1" fill="none" stroke-linejoin="round" /> <path d="M1545.8 471.0 L1545.8 471.0 L1546.0 470.80002 L1546.0 470.80002 L1546.0 470.80002 L1546.0 470.80002 L1546.2 471.19998 L1546.0 472.0 L1546.2 473.4 L1546.0 474.59998 L1546.0 477.40002 L1546.0 479.0 L1546.0 480.80002 L1545.0 487.59998 L1545.2001 490.40002 L1545.2001 496.4 L1545.2001 500.0 L1544.6001 504.0 L1544.6001 515.60004 L1544.6001 537.4 L1544.4 545.0 L1544.6001 548.4 L1543.8 555.80005 L1544.0 560.2 L1542.6 580.80005 L1542.6 590.2 L1542.4 594.6 L1542.4 605.0 L1541.6001 614.19995 L1541.2 619.19995 L1540.3999 640.80005 L1541.0 656.60004 L1541.6001 662.2 L1541.2 677.60004 L1541.6001 688.2 L1542.4 699.80005 L1542.6 705.4 L1543.2001 711.8 L1543.2001 722.60004 L1543.2001 727.60004 L1542.6 738.0 L1542.4 743.6 L1542.6 748.6 L1542.6 760.4 L1543.2001 766.2 L1543.2001 771.8 L1543.8 782.60004 L1544.4 787.2 L1544.6001 796.2 L1544.4 811.8 L1544.4 828.2 L1544.6001 834.4 L1545.0 861.8 L1544.4 867.2 L1544.4 878.6 L1542.6 889.4 L1541.6001 911.8 L1541.6001 934.80005 L1541.6001 940.0 L1541.2 955.80005 L1541.0 967.2 L1541.0 973.0 L1540.3999 983.6 L1540.0 1003.6 L1539.6001 1013.6 L1539.6001 1019.4 L1538.2001 1029.8 L1536.2 1061.6001 L1536.0 1084.0 L1536.7999 1097.6 L1537.2 1117.2 L1537.6 1130.0 L1541.0 1167.6 L1541.7999 1180.0 L1546.0 1217.6 L1547.2 1230.8 L1550.8 1264.4 L1551.2 1267.2 L1553.2001 1273.2 L1557.4 1305.2001 L1558.2001 1319.6001 L1558.8 1321.7999 L1558.8 1322.6 L1558.8 1323.8 L1558.8 1326.7999 L1558.6 1328.6 L1558.0 1331.6001 L1556.0 1340.3999 L1555.2001 1342.4 L1555.2001 1342.4" stroke="rgb(25,25,25)" stroke-width="1" fill="none" stroke-linejoin="round" /> <path d="M1554.6001 1324.0 L1555.0 1324.0 L1555.2001 1323.8 L1555.2001 1323.8 L1555.2001 1323.8 L1555.2001 1323.8 L1555.2001 1323.8 L1555.2001 1323.8 L1555.2001 1323.8 L1553.8 1323.8 L1553.0 1323.8 L1552.6 1323.8 L1552.4 1323.8 L1552.4 1323.8 L1551.7999 1323.8 L1551.6001 1324.0 L1551.6001 1323.8 L1551.6001 1323.8 L1551.6001 1323.8 L1551.2 1323.8 L1551.0 1323.6 L1550.0 1323.6 L1548.6 1323.8 L1538.8 1323.2001 L1534.6001 1323.2001 L1528.6 1322.4 L1524.0 1322.4 L1520.0 1322.4 L1518.8 1322.4 L1516.6001 1322.4 L1515.2001 1322.6 L1514.0 1322.4 L1513.6 1321.7999 L1511.7999 1322.2 L1502.2 1323.0 L1490.2001 1323.6 L1485.2001 1323.6 L1482.6 1323.6 L1480.2001 1323.2001 L1477.4 1323.6 L1471.6001 1323.6 L1466.0 1323.0 L1455.3999 1323.2001 L1451.7999 1323.6 L1442.4 1322.6 L1438.6 1323.0 L1434.0 1322.4 L1430.8 1322.6 L1409.6001 1323.2001 L1405.2001 1323.2001 L1380.3999 1324.6001 L1376.0 1324.4 L1363.8 1326.0 L1352.6 1326.0 L1332.4 1327.4 L1327.6 1327.2 L1312.6 1328.2001 L1306.7999 1329.4 L1302.4 1328.6 L1297.4 1328.8 L1282.2 1328.6 L1261.2001 1328.2001 L1242.2 1328.6 L1238.0 1329.0 L1197.6 1328.8 L1185.4 1329.0 L1142.2 1329.4 L1138.2 1329.4 L1123.6 1329.6001 L1118.0 1329.6001 L1098.0 1329.6001 L1098.0 1329.6001" stroke="rgb(25,25,25)" stroke-width="1" fill="none" stroke-linejoin="round" /> <path d="M1105.4 1333.2001 L1105.8 1328.8 L1106.2001 1327.2 L1106.2001 1321.0 L1105.4 1311.7999 L1104.0 1302.4 L1103.2 1296.6001 L1104.0 1279.4 L1104.4 1267.6 L1104.8 1262.2 L1105.4 1246.2001 L1105.4 1234.4 L1105.4 1221.2001 L1106.8 1190.8 L1106.8 1186.2001 L1106.8 1172.6 L1107.2 1155.0 L1107.2 1143.0 L1107.2 1139.0 L1108.0 1126.2001 L1107.6 1120.8 L1108.6 1115.8 L1110.0 1098.2 L1110.4 1091.2001 L1111.6001 1074.4 L1112.2 1052.2 L1112.2 1048.6 L1112.6 1040.8 L1114.0 1035.4 L1114.8 1029.0 L1115.0 1028.6 L1115.0 1028.0 L1115.0 1025.0 L1115.8 1021.2 L1115.8 1020.80005 L1115.8 1020.80005" stroke="rgb(25,25,25)" stroke-width="1" fill="none" stroke-linejoin="round" /> <path d="M1109.8 1021.60004 L1108.6 1021.60004 L1107.6 1021.8 L1106.2001 1021.8 L1103.6 1021.8 L1100.0 1021.60004 L1097.6 1021.2 L1095.0 1021.2 L1085.8 1021.8 L1081.8 1022.60004 L1078.6 1021.8 L1075.0 1020.80005 L1053.6 1022.2 L1035.0 1022.60004 L1029.0 1022.60004 L1016.8 1021.8 L1004.4 1021.2 L978.6 1021.8 L944.4 1020.80005 L927.2 1019.80005 L922.60004 1019.80005 L906.2 1019.0 L889.4 1019.0 L866.8 1019.4 L860.80005 1019.0 L854.0 1019.80005 L836.8 1020.4 L827.2 1021.2 L820.4 1021.8 L815.4 1023.0 L815.0 1023.0 L813.0 1023.6 L812.60004 1023.6 L812.60004 1023.6 L813.0 1024.0 L814.0 1025.4 L814.80005 1025.4 L814.80005 1025.4" stroke="rgb(25,25,25)" stroke-width="1" fill="none" stroke-linejoin="round" /> <path d="M812.2 1024.4 L812.2 1024.4 L812.2 1024.4 L812.2 1025.0 L812.2 1025.4 L812.60004 1027.2 L812.60004 1027.6 L812.60004 1029.4 L813.0 1030.8 L813.0 1032.2 L814.0 1036.8 L815.80005 1054.0 L815.80005 1061.2001 L816.2 1070.4 L816.2 1096.8 L818.0 1124.0 L819.0 1135.8 L820.0 1141.8 L820.80005 1159.0 L821.2 1183.6 L821.60004 1190.0 L821.8 1195.8 L823.0 1229.0 L824.0 1259.0 L824.0 1263.0 L824.4 1269.4 L824.4 1272.2 L825.0 1278.6 L825.80005 1286.0 L826.60004 1290.2001 L826.8 1301.0 L826.60004 1306.6001 L827.2 1310.0 L827.2 1316.0 L827.2 1323.8 L826.8 1326.0 L826.8 1327.6 L826.8 1328.6 L826.8 1328.8 L826.8 1328.8 L826.8 1328.8 L826.2 1328.8 L826.2 1328.8" stroke="rgb(25,25,25)" stroke-width="1" fill="none" stroke-linejoin="round" /> 
 <path d="M825.4 1326.0 L826.2 1326.0 L826.8 1326.0 L826.8 1326.0 L826.8 1326.0 L826.60004 1326.0 L826.8 1325.3999 L826.8 1325.3999 L827.2 1325.2001 L826.8 1325.2001 L827.2 1324.6001 L827.2 1324.0 L827.2 1324.0 L826.8 1323.8 L826.8 1323.8 L826.60004 1323.8 L826.2 1323.6 L826.8 1323.6 L826.60004 1323.8 L826.8 1323.6 L826.60004 1323.6 L826.60004 1323.6 L826.2 1323.8 L824.0 1323.8 L821.2 1324.4 L819.80005 1324.4 L815.80005 1324.6001 L810.80005 1325.2001 L807.60004 1325.2001 L800.4 1326.0 L796.2 1326.0 L787.60004 1326.6001 L783.0 1326.7999 L760.0 1328.6 L753.6 1329.0 L731.60004 1329.6001 L723.6 1329.4 L662.60004 1325.2001 L648.0 1323.8 L632.4 1323.2001 L624.6 1322.4 L609.0 1321.6001 L594.0 1320.8 L586.2 1320.2001 L564.6 1318.6 L550.2 1318.0 L542.8 1317.6 L493.80002 1316.0 L486.8 1316.2 L451.4 1318.0 L431.0 1318.6 L411.8 1318.2001 L398.0 1319.4 L335.0 1325.8 L330.40002 1325.8 L314.59998 1324.6001 L311.8 1324.0 L294.59998 1322.6 L291.2 1325.2001 L291.2 1325.2001 L291.2 1325.2001 L291.2 1325.2001" stroke="rgb(25,25,25)" stroke-width="1" fill="none" stroke-linejoin="round" /> <path d="M285.0 1326.7999 L285.0 1326.2 L284.59998 1325.8 L285.40002 1318.6 L281.8 1281.0 L281.8 1276.6001 L281.2 1267.6 L281.0 1262.2 L278.6 1222.6 L278.4 1212.6 L278.0 1203.6 L277.19998 1190.0 L277.0 1185.0 L276.2 1179.4 L274.59998 1164.8 L274.2 1160.0 L273.8 1150.4 L273.4 1145.0 L272.80002 1127.6 L272.6 1110.8 L272.0 1104.8 L271.4 1093.0 L272.0 1087.6 L272.0 1082.6 L271.8 1066.8 L271.2 1061.8 L270.6 1050.8 L270.40002 1040.0 L270.2 1035.0 L269.59998 1018.6 L269.4 987.60004 L269.2 969.0 L269.2 963.0 L269.2 925.0 L268.6 911.8 L268.4 905.4 L267.80002 886.2 L267.80002 880.4 L267.80002 874.4 L267.80002 862.2 L267.6 850.80005 L267.0 844.4 L266.2 820.80005 L265.6 815.0 L265.40002 791.2 L266.2 735.4 L266.2 729.4 L266.2 718.0 L266.2 712.60004 L266.2 701.8 L266.4 674.4 L267.0 664.4 L267.0 644.4 L267.80002 640.0 L267.0 634.6 L267.0 620.0 L267.19998 615.0 L267.0 595.80005 L266.2 586.2 L265.2 552.2 L265.40002 544.0 L265.2 536.0 L265.40002 529.0 L269.2 492.59998 L270.6 486.0 L271.2 484.0 L271.2 483.6 L271.4 483.0 L271.4 482.40002 L272.0 481.8 L272.6 480.80002 L273.0 478.80002 L273.4 475.80002 L273.6 476.19998 L274.4 473.6 L275.0 470.6 L275.40002 469.59998 L274.4 470.2 L274.4 470.2" stroke="rgb(25,25,25)" stroke-width="1" fill="none" stroke-linejoin="round" /> <path d="M483.80002 680.0 L483.6 680.0 L483.6 680.0 L483.6 680.0 L483.6 680.0 L483.4 680.4 L484.0 681.8 L484.0 682.60004 L484.0 683.0 L484.19998 684.0 L484.4 707.2 L484.4 732.60004 L484.19998 736.2 L484.19998 740.4 L483.80002 748.6 L483.4 753.2 L482.8 758.0 L482.2 765.4 L482.40002 769.80005 L482.59998 787.2 L482.40002 794.80005 L482.40002 798.0 L482.2 809.4 L481.0 824.4 L480.80002 830.0 L479.59998 839.0 L479.0 848.0 L478.80002 850.4 L478.6 854.0 L478.6 855.0 L478.6 855.0 L478.80002 855.4 L478.6 855.4 L478.4 855.4 L478.4 855.4" stroke="rgb(25,25,25)" stroke-width="1" fill="none" stroke-linejoin="round" /> <path d="M485.0 749.0 L485.40002 749.0 L485.40002 749.4 L485.40002 749.4 L485.40002 749.4 L485.40002 749.4 L485.40002 749.80005 L485.80002 749.80005 L486.0 749.4 L487.0 749.4 L487.40002 749.4 L487.8 749.4 L490.0 749.4 L491.0 749.4 L494.4 749.4 L499.0 749.80005 L502.2 749.80005 L522.6 748.0 L532.4 747.60004 L542.4 747.60004 L547.4 747.2 L591.0 744.4 L595.4 744.4 L615.80005 743.0 L630.80005 742.60004 L634.39996 742.2 L641.60004 742.2 L645.0 742.2 L649.0 742.2 L680.4 741.2 L686.2 740.0 L697.2 739.4 L707.2 739.0 L720.80005 737.60004 L724.80005 737.60004 L736.60004 736.2 L740.4 735.4 L743.6 735.80005 L760.0 735.4 L762.60004 735.80005 L765.4 735.4 L774.80005 734.4 L793.2 733.0 L795.4 733.0 L796.2 733.0 L799.0 733.2 L804.80005 733.0 L806.2 733.0 L807.2 733.0 L809.0 733.0 L810.0 733.0 L811.8 733.6 L812.60004 733.6 L814.0 734.0 L818.6 734.0 L822.2 734.0 L823.6 734.0 L825.0 734.0 L825.4 734.80005 L825.4 735.0 L825.4 734.80005 L824.80005 734.4 L823.0 733.6 L823.0 733.6" stroke="rgb(25,25,25)" stroke-width="1" fill="none" stroke-linejoin="round" /> <path d="M479.0 963.2 L479.0 963.2 L479.0 963.2 L479.0 963.2 L479.0 963.0 L479.0 963.2 L478.80002 963.6 L479.0 964.0 L479.0 964.0 L479.0 964.0 L479.0 964.4 L479.0 964.4 L479.0 964.80005 L479.0 965.80005 L479.0 966.8 L479.19998 968.0 L479.4 970.4 L479.59998 971.60004 L480.0 973.0 L480.2 974.4 L480.6 977.60004 L480.80002 979.0 L481.19998 982.60004 L481.19998 984.0 L481.8 986.2 L483.4 1000.0 L483.4 1002.60004 L483.6 1008.2 L483.80002 1011.60004 L483.80002 1017.2 L484.0 1020.0 L485.0 1038.0 L484.59998 1040.8 L485.0 1050.8 L485.40002 1056.6001 L485.2 1064.8 L484.4 1071.2001 L484.19998 1078.6 L484.0 1093.0 L482.59998 1098.6 L484.19998 1105.8 L484.19998 1112.2 L484.59998 1116.2001 L484.19998 1123.0 L483.80002 1135.8 L483.6 1138.2 L483.6 1148.6 L483.4 1152.6 L482.8 1158.6 L483.0 1168.0 L483.0 1168.2 L483.0 1168.2 L483.0 1168.2 L483.0 1168.2 L483.0 1168.6 L483.4 1169.4 L483.4 1169.4 L483.4 1169.4 L483.4 1169.4 L483.4 1169.4 L483.4 1169.4" stroke="rgb(25,25,25)" stroke-width="1" fill="none" stroke-linejoin="round" /> <path d="M490.80002 1089.4 L490.80002 1089.8 L490.6 1089.4 L490.80002 1089.8 L490.80002 1089.8 L490.80002 1089.8 L490.80002 1090.0 L490.80002 1090.0 L490.80002 1090.0 L491.19998 1090.0 L491.8 1090.0 L492.2 1090.0 L497.40002 1090.0 L499.4 1089.8 L512.6 1090.0 L517.8 1089.8 L528.6 1088.6 L545.0 1087.2 L560.80005 1086.8 L585.60004 1085.0 L615.0 1083.0 L635.80005 1081.8 L641.8 1081.6001 L659.0 1080.0 L663.6 1080.0 L672.60004 1079.4 L691.60004 1078.0 L696.2 1078.0 L710.80005 1077.2 L719.0 1077.2 L723.0 1077.2 L737.2 1076.8 L744.80005 1075.8 L751.8 1075.4 L767.60004 1075.0 L770.80005 1074.8 L778.6 1075.0 L780.4 1074.8 L782.60004 1074.0 L784.0 1075.0 L789.0 1075.0 L790.0 1075.0 L794.4 1075.4 L798.0 1075.0 L801.8 1075.0 L804.4 1075.0 L805.0 1075.0 L806.2 1075.0 L806.8 1074.4 L808.2 1075.4 L821.2 1075.8 L823.2 1075.0 L823.2 1075.0" stroke="rgb(25,25,25)" stroke-width="1" fill="none" stroke-linejoin="round" /> <path d="M479.59998 1320.2001 L479.0 1318.2001 L479.4 1319.0 L479.19998 1318.8 L479.0 1318.2001 L479.19998 1318.8 L478.80002 1318.2001 L479.19998 1318.6 L479.0 1317.4 L479.0 1317.4 L479.0 1313.6 L479.0 1312.4 L479.4 1305.3999 L479.19998 1302.4 L479.59998 1299.0 L480.0 1286.6001 L480.80002 1282.4 L481.8 1275.8 L482.2 1273.0 L482.40002 1264.0 L481.8 1261.8 L482.40002 1259.4 L482.40002 1255.4 L482.2 1252.6 L482.0 1250.0 L482.40002 1247.2 L482.0 1243.6 L482.40002 1241.8 L482.40002 1240.8 L482.40002 1237.6 L482.40002 1235.8 L482.40002 1235.4 L482.40002 1235.0 L482.40002 1233.0 L482.40002 1232.2 L482.40002 1231.6001 L482.59998 1231.2001 L482.8 1230.0 L482.8 1230.0 L482.59998 1230.0 L482.40002 1230.8 L482.40002 1230.8" stroke="rgb(25,25,25)" stroke-width="1" fill="none" stroke-linejoin="round" /> <path d="M484.19998 471.19998 L484.4 471.0 L484.4 470.80002 L484.4 470.80002 L484.59998 471.0 L485.0 472.0 L484.59998 472.40002 L484.59998 474.19998 L485.40002 479.0 L485.2 480.6 L485.80002 484.19998 L485.80002 487.0 L486.4 495.2 L486.0 497.40002 L487.2 502.8 L487.59998 506.0 L487.59998 509.0 L488.4 512.6 L489.0 526.2 L489.0 533.0 L489.0 535.80005 L489.0 538.6 L489.19998 541.2 L488.4 545.0 L488.4 551.2 L487.40002 558.0 L487.40002 561.8 L487.40002 567.4 L487.0 569.39996 L486.19998 570.80005 L486.0 572.8 L486.0 576.4 L486.0 576.4 L485.80002 576.2 L485.80002 576.2" stroke="rgb(25,25,25)" stroke-width="1" fill="none" stroke-linejoin="round" /> <path d="M483.6 684.80005 L483.0 685.80005 L484.19998 684.4 L484.19998 684.4 L484.19998 684.4 L484.4 684.0 L484.19998 684.80005 L485.40002 684.0 L486.0 683.0 L487.0 682.2 L488.4 681.8 L490.0 680.4 L493.80002 675.80005 L499.0 670.80005 L501.8 668.0 L509.59998 660.0 L513.8 656.2 L516.8 653.6 L528.4 643.0 L534.0 638.0 L536.8 635.4 L542.4 630.80005 L545.4 628.4 L547.4 625.80005 L558.0 615.80005 L561.0 614.19995 L562.8 612.6 L564.0 612.0 L564.6 611.0 L566.4 610.0 L569.6 606.8 L570.60004 606.0 L570.80005 605.60004 L570.80005 605.80005 L570.60004 605.80005 L570.4 605.80005 L570.4 605.80005" stroke="rgb(25,25,25)" stroke-width="1" fill="none" stroke-linejoin="round" /> <path d="M482.2 1168.0 L482.0 1168.6 L482.0 1169.0 L482.0 1168.0 L481.19998 1168.0 L482.2 1168.0 L482.40002 1168.2 L482.40002 1168.6 L482.59998 1168.6 L482.59998 1169.0 L483.0 1169.0 L485.40002 1170.8 L486.4 1171.8 L489.59998 1174.4 L490.80002 1175.8 L494.4 1178.6 L499.4 1182.2 L501.0 1184.0 L504.4 1186.2001 L507.2 1188.0 L507.8 1190.0 L511.8 1191.8 L518.4 1196.8 L527.0 1203.0 L528.0 1204.4 L534.39996 1209.8 L538.4 1213.0 L540.2 1214.4 L543.4 1216.8 L547.6 1219.8 L548.6 1220.4 L557.0 1229.4 L557.0 1229.4" stroke="rgb(25,25,25)" stroke-width="1" fill="none" stroke-linejoin="round" /> 


<path d="M625.60004 1237.2 L625.4 1238.0 L625.4 1238.0 L625.60004 1237.6 L625.60004 1237.2 L626.0 1236.2001 L635.0 1216.8 L637.4 1211.8 L643.6 1198.6 L654.0 1183.0 L660.4 1175.0 L661.8 1174.4 L661.8 1174.4 L661.8 1175.0 L662.2 1177.6 L663.2 1181.8 L665.4 1191.6001 L667.60004 1203.6 L669.0 1210.0 L672.2 1220.0 L674.4 1224.0 L678.6 1232.2 L681.60004 1236.6001 L681.8 1237.2 L681.8 1237.2 L681.8 1237.2 L681.8 1237.2 L682.2 1237.6 L681.8 1237.2 L681.8 1237.2 L681.60004 1236.8 L681.8 1236.8 L681.60004 1236.8 L680.80005 1236.6001 L680.80005 1236.8 L660.4 1235.8 L657.2 1236.2001 L654.4 1236.8 L643.2 1235.8 L627.4 1236.2001 L625.80005 1236.2001 L625.0 1236.6001 L624.39996 1236.2001 L624.39996 1236.2001" stroke="rgb(25,25,25)" stroke-width="1" fill="none" stroke-linejoin="round" /> <path d="M357.2 958.0 L357.40002 958.2 L356.19998 958.6 L355.80002 959.0 L355.6 959.0 L353.80002 958.2 L344.19998 955.0 L341.4 953.6 L339.4 952.60004 L336.0 950.0 L331.4 943.6 L330.2 940.80005 L329.19998 938.6 L323.4 905.0 L331.19998 879.0 L345.6 868.2 L352.2 866.2 L366.4 865.4 L372.8 866.2 L375.40002 867.2 L381.4 868.6 L387.2 871.60004 L389.0 872.2 L391.4 874.0 L396.19998 878.0 L410.80002 925.4 L410.6 930.0 L410.2 932.2 L409.0 937.2 L407.40002 940.80005 L404.0 946.8 L403.4 948.6 L399.59998 952.2 L396.8 954.4 L395.40002 955.4 L393.80002 956.60004 L381.19998 963.0 L366.0 961.8 L365.2 962.2 L360.80002 960.4 L352.0 956.60004 L349.0 954.0 L349.0 954.0" stroke="rgb(25,25,25)" stroke-width="1" fill="none" stroke-linejoin="round" /> <path d="M1112.6 717.60004 L1112.6 717.60004 L1113.0 717.60004 L1114.4 717.60004 L1114.8 717.60004 L1115.4 717.60004 L1115.8 717.60004 L1125.4 719.4 L1130.8 720.0 L1135.0 719.80005 L1139.0 719.4 L1148.6 719.0 L1176.8 718.6 L1182.6 718.6 L1198.6 718.0 L1207.6 718.2 L1212.2 718.0 L1224.0 718.2 L1228.0 718.6 L1229.4 718.2 L1229.4 718.6 L1229.4 718.6 L1229.4 718.6" stroke="rgb(25,25,25)" stroke-width="1" fill="none" stroke-linejoin="round" /> <path d="M1293.2001 725.80005 L1322.2 724.80005 L1326.0 724.80005 L1414.6001 722.60004 L1420.3999 722.60004 L1421.6001 723.0 L1422.6 722.60004 L1423.8 722.60004 L1423.8 722.60004 L1424.4 722.60004 L1425.2001 723.0 L1427.2 722.60004 L1428.8 722.60004 L1428.8 722.60004 L1428.6 722.60004 L1428.2001 722.60004 L1428.2001 722.60004" stroke="rgb(25,25,25)" stroke-width="1" fill="none" stroke-linejoin="round" /> <path d="M1104.4 1114.4 L1104.4 1114.0 L1104.4 1114.0 L1104.8 1114.4 L1105.8 1114.4 L1113.6 1114.0 L1123.0 1113.2 L1126.6001 1112.6 L1146.6001 1110.0 L1151.8 1110.0 L1179.4 1107.6 L1194.0 1107.2 L1197.2 1107.2 L1196.8 1107.2 L1196.8 1107.2" stroke="rgb(25,25,25)" stroke-width="1" fill="none" stroke-linejoin="round" /> <path d="M1260.0 1105.8 L1259.4 1105.4 L1259.8 1105.8 L1260.4 1105.0 L1261.8 1105.0 L1263.6 1105.0 L1265.0 1104.8 L1266.2001 1104.8 L1290.2001 1102.6 L1338.2001 1099.8 L1368.6 1098.0 L1375.3999 1097.6 L1382.4 1097.2 L1395.0 1097.2 L1410.3999 1095.8 L1410.2001 1095.8 L1410.2001 1095.8" stroke="rgb(25,25,25)" stroke-width="1" fill="none" stroke-linejoin="round" /> <path d="M1405.2001 921.2 L1405.2001 921.60004 L1405.2001 921.8 L1406.0 921.8 L1406.6001 922.2 L1407.4 922.2 L1408.2001 922.2 L1409.6001 922.2 L1414.4 922.2 L1416.0 922.60004 L1431.0 921.2 L1435.3999 920.4 L1440.2001 919.4 L1466.7999 917.2 L1482.4 916.60004 L1487.4 915.80005 L1498.0 914.0 L1508.2001 913.6 L1513.0 913.0 L1520.3999 911.8 L1526.0 911.2 L1527.6 911.2 L1528.8 911.60004 L1529.6001 911.60004 L1530.3999 911.2 L1532.2 911.2 L1536.0 911.2 L1538.2001 910.80005 L1544.4 910.4 L1546.7999 909.80005 L1550.0 909.4 L1550.2001 909.4 L1550.0 909.0 L1549.4 909.0 L1548.2001 908.2 L1546.7999 908.0 L1546.7999 908.0" stroke="rgb(25,25,25)" stroke-width="1" fill="none" stroke-linejoin="round" /> <path d="M1354.6001 624.39996 L1353.0 624.39996 L1353.0 624.19995 L1352.2 624.0 L1348.8 622.0 L1347.4 621.0 L1336.2 589.0 L1338.8 581.8 L1339.6001 578.8 L1340.8 575.60004 L1343.0 570.2 L1350.3999 560.4 L1352.4 559.0 L1356.6001 555.2 L1359.4 553.8 L1361.6001 552.2 L1367.2 549.39996 L1381.0 546.2 L1391.2 547.2 L1407.6 553.0 L1412.4 556.0 L1416.0 559.6 L1421.6001 565.80005 L1422.4 567.6 L1424.0 570.60004 L1429.0 589.6 L1428.8 598.4 L1427.6 602.4 L1426.7999 608.8 L1426.0 611.0 L1425.2001 613.8 L1424.4 615.4 L1423.0 620.0 L1421.6001 622.0 L1420.3999 624.0 L1418.2001 628.0 L1416.6001 630.0 L1415.0 632.0 L1408.8 636.0 L1406.6001 637.4 L1402.6 639.19995 L1400.2001 640.0 L1398.6 640.4 L1394.6001 640.4 L1391.0 640.4 L1390.0 640.4 L1388.0 640.4 L1384.6001 639.6 L1382.6 639.39996 L1378.2001 637.6 L1375.2001 636.4 L1373.8 635.80005 L1370.2001 634.0 L1359.6001 628.6 L1357.4 627.0 L1355.8 626.2 L1349.0 620.60004 L1349.0 620.60004" stroke="rgb(25,25,25)" stroke-width="1" fill="none" stroke-linejoin="round" /> <path d="M1233.0 720.0 L1234.8 718.6 L1244.0 711.60004 L1254.0 703.0 L1259.0 698.2 L1264.4 693.2 L1279.8 679.0 L1284.6001 674.4 L1299.6001 660.80005 L1303.8 657.2 L1304.4 657.2 L1304.0 657.2 L1304.0 657.2 L1303.8 657.2 L1303.8 657.2" stroke="rgb(25,25,25)" stroke-width="1" fill="none" stroke-linejoin="round" /> <path d="M1194.0 1110.0 L1196.2001 1109.0 L1196.2001 1109.0 L1196.2001 1109.0 L1196.2001 1109.4 L1196.8 1110.0 L1198.2 1111.8 L1200.0 1113.2 L1201.8 1115.8 L1207.2 1122.6 L1220.8 1141.6001 L1226.2001 1148.0 L1231.6001 1153.6 L1233.6 1155.8 L1238.0 1160.4 L1240.0 1163.2 L1240.0 1163.2" stroke="rgb(25,25,25)" stroke-width="1" fill="none" stroke-linejoin="round" /> <path d="M1311.6001 1257.2 L1311.6001 1256.2001 L1311.6001 1256.8 L1311.6001 1256.2001 L1315.3999 1252.6 L1317.4 1250.0 L1324.0 1240.8 L1333.8 1227.6 L1337.6 1222.6 L1339.4 1220.4 L1341.0 1218.6 L1344.4 1214.0 L1345.0 1211.8 L1346.0 1210.4 L1346.6001 1209.8 L1347.4 1209.0 L1348.2001 1207.6 L1350.0 1204.8 L1350.2001 1203.6 L1351.2 1201.8 L1351.7999 1201.2001 L1352.4 1200.8 L1352.6 1200.4 L1353.2001 1200.0 L1354.6001 1198.0 L1355.0 1197.2 L1355.3999 1197.2 L1355.2001 1197.2 L1355.2001 1197.2 L1355.2001 1197.2 L1355.2001 1198.0 L1355.2001 1197.2 L1355.2001 1197.2 L1355.2001 1197.6 L1355.2001 1197.2 L1355.8 1198.6 L1356.0 1200.0 L1357.6 1209.0 L1359.0 1213.0 L1366.2 1238.0 L1369.4 1244.8 L1372.4 1249.8 L1377.4 1257.6 L1378.2001 1259.0 L1377.6 1258.2 L1377.4 1258.6 L1377.6 1258.2 L1377.6 1258.2 L1377.6 1258.6 L1377.4 1258.6 L1377.4 1258.2 L1377.4 1258.2 L1377.4 1258.0 L1377.2 1258.0 L1376.6001 1258.0 L1375.8 1257.6 L1375.0 1257.6 L1373.6 1257.6 L1370.2001 1258.6 L1366.2 1260.0 L1359.4 1261.2001 L1357.4 1261.8 L1350.0 1262.6 L1320.0 1259.0 L1319.6001 1258.6 L1319.6001 1258.6 L1319.6001 1259.0 L1319.6001 1258.6 L1319.6001 1258.6 L1319.6001 1258.6 L1319.6001 1259.0 L1319.6001 1258.6 L1319.6001 1258.6" stroke="rgb(25,25,25)" stroke-width="1" fill="none" stroke-linejoin="round" /> 
 <path d="M481.0 966.8 L481.19998 966.8 L480.80002 967.2 L480.80002 967.60004 L480.6 967.2 L481.0 967.2 L481.0 966.8 L481.19998 966.8 L482.59998 966.2 L483.80002 965.4 L485.0 964.0 L487.0 963.0 L488.4 961.8 L491.0 960.0 L500.80002 953.6 L504.59998 950.4 L509.0 948.0 L521.8 939.4 L526.2 936.2 L534.6 931.60004 L539.0 928.2 L546.2 923.2 L550.2 921.2 L552.6 919.4 L560.80005 913.6 L560.80005 913.6" stroke="rgb(25,25,25)" stroke-width="1" fill="none" stroke-linejoin="round" /> <path d="M1428.6 720.4 L1428.6 720.4 L1428.6 720.80005 L1428.8 720.80005 L1428.8 720.80005 L1428.8 720.80005 L1429.4 721.2 L1429.4 721.2 L1429.6001 721.60004 L1429.6001 722.2 L1429.6001 722.60004 L1429.6001 724.0 L1429.6001 730.0 L1429.6001 731.60004 L1430.0 733.0 L1428.8 740.0 L1427.2 753.0 L1426.6001 767.60004 L1427.2 780.4 L1428.2001 789.0 L1427.6 795.4 L1427.6 801.2 L1427.2 804.4 L1426.6001 807.2 L1425.2001 818.2 L1423.2001 845.80005 L1422.6 852.60004 L1422.4 857.60004 L1418.2001 902.60004 L1417.4 907.2 L1415.3999 948.0 L1415.2001 950.80005 L1414.6001 957.2 L1414.6001 959.4 L1414.0 960.80005 L1414.4 969.4 L1414.4 973.0 L1413.8 986.2 L1413.6 990.80005 L1412.2 1028.0 L1411.2 1044.4 L1411.2 1052.2 L1411.6001 1090.0 L1411.2 1099.0 L1411.2 1099.0" stroke="rgb(25,25,25)" stroke-width="1" fill="none" stroke-linejoin="round" /> </svg>