<svg width="1818.4523" height="2360.1191" xmlns="http://www.w3.org/2000/svg" version="1.1" xmlns:xlink="http://www.w3.org/1999/xlink" ><path d="M1391.2 471.0 L1391.6001 471.19998 L1391.6001 472.0 L1391.6001 472.40002 L1391.7999 472.59998 L1391.0 479.59998 L1390.8 482.59998 L1390.2001 494.0 L1392.4 552.6 L1392.2 560.60004 L1390.8 594.6 L1396.6001 660.4 L1396.7999 669.4 L1396.7999 722.2 L1397.4 745.4 L1398.2001 767.60004 L1399.0 779.0 L1405.0 835.80005 L1406.0 848.0 L1407.4 860.4 L1413.2001 982.2 L1413.2001 995.0 L1414.0 1044.0 L1416.6001 1147.6 L1418.0 1216.2001 L1418.2001 1226.2001 L1420.3999 1261.6001 L1421.7999 1278.2 L1421.7999 1281.7999 L1421.0 1284.6001 L1417.4 1289.6001 L1417.4 1289.6001" stroke="rgb(25,25,25)" stroke-width="1" fill="none" stroke-linejoin="round" /> <path d="M1414.6001 1283.2001 L1414.0 1283.0 L1413.8 1283.2001 L1414.4 1283.2001 L1413.8 1283.2001 L1414.0 1283.2001 L1414.0 1283.0 L1414.0 1283.2001 L1413.8 1283.0 L1413.8 1283.0 L1413.2001 1282.6 L1412.4 1282.4 L1409.4 1281.6001 L1407.6 1281.2 L1406.0 1281.6001 L1403.2001 1281.0 L1397.4 1281.0 L1389.4 1281.0 L1384.6001 1281.2 L1373.8 1281.6001 L1360.3999 1281.6001 L1338.2001 1281.7999 L1311.6001 1281.6001 L1302.4 1281.0 L1293.0 1280.3999 L1273.6 1279.4 L1263.6 1278.6 L1243.2 1278.6 L1233.0 1278.0 L1222.2 1278.0 L1200.4 1277.2 L1154.0 1277.2 L1142.6 1277.2 L1119.4 1277.6 L1107.6 1278.0 L1047.6 1280.8 L1024.8 1282.2 L1014.0 1282.4 L993.2 1283.2001 L957.2 1286.2 L950.4 1286.6001 L939.0 1288.6 L934.80005 1288.2001 L932.2 1287.2 L932.2 1287.2" stroke="rgb(25,25,25)" stroke-width="1" fill="none" stroke-linejoin="round" /> <path d="M937.2 1288.8 L936.8 1289.4 L936.2 1289.0 L935.4 1286.6001 L934.80005 1283.8 L933.6 1271.2001 L933.0 1259.4 L933.0 1253.0 L932.60004 1239.0 L932.60004 1231.8 L931.2 1208.6 L928.6 1161.2001 L927.60004 1140.0 L926.8 1129.4 L926.8 1078.0 L927.60004 1056.2001 L928.0 1045.0 L927.60004 1009.4 L927.2 976.8 L927.2 967.2 L927.2 934.0 L928.2 926.8 L929.0 916.2 L929.4 912.2 L929.4 912.2" stroke="rgb(25,25,25)" stroke-width="1" fill="none" stroke-linejoin="round" /> <path d="M929.80005 907.2 L929.0 906.8 L928.6 906.8 L928.0 906.8 L924.80005 906.2 L923.2 905.80005 L919.0 906.60004 L910.80005 906.60004 L907.2 906.8 L903.0 906.60004 L887.2 906.8 L857.2 908.0 L848.0 908.6 L826.60004 910.0 L815.0 910.80005 L779.80005 913.2 L768.2 913.6 L746.2 914.4 L735.4 915.0 L621.8 918.6 L598.4 919.0 L577.8 919.0 L560.60004 919.0 L554.0 919.4 L548.4 919.4 L544.6 919.0 L542.4 917.60004 L542.0 915.80005 L542.0 915.80005" stroke="rgb(25,25,25)" stroke-width="1" fill="none" stroke-linejoin="round" /> <path d="M540.2 925.4 L539.6 925.4 L539.0 925.80005 L538.8 925.4 L538.6 925.0 L538.6 925.0 L538.4 925.4 L537.6 926.2 L537.4 927.2 L537.6 928.0 L537.4 931.2 L537.6 933.6 L537.4 935.80005 L538.6 943.6 L541.2 981.2 L545.4 1023.6 L545.80005 1035.4 L547.4 1060.4 L547.4 1072.6 L549.0 1100.0 L550.80005 1141.2001 L551.8 1171.8 L552.4 1186.8 L555.2 1244.0 L556.8 1304.4 L557.4 1314.0 L557.8 1333.2001 L557.8 1333.2001" stroke="rgb(25,25,25)" stroke-width="1" fill="none" stroke-linejoin="round" /> <path d="M549.39996 1345.0 L549.0 1344.6001 L548.4 1345.0 L549.0 1344.6001 L548.8 1345.0 L548.0 1345.2001 L547.2 1345.2001 L546.0 1345.8 L545.60004 1345.8 L541.2 1346.6001 L539.19995 1346.6001 L483.4 1349.4 L468.6 1349.4 L406.0 1348.2001 L351.0 1348.2001 L334.19998 1348.2001 L326.8 1348.6 L312.80002 1348.0 L301.0 1346.0 L295.2 1347.4 L290.0 1347.4 L281.0 1348.6 L277.0 1348.8 L267.0 1350.8 L266.0 1350.3999 L266.0 1350.3999" stroke="rgb(25,25,25)" stroke-width="1" fill="none" stroke-linejoin="round" /> <path d="M270.6 1351.6001 L270.40002 1351.7999 L270.0 1351.6001 L270.0 1351.0 L270.40002 1350.0 L270.40002 1348.6 L271.4 1346.7999 L273.4 1341.0 L272.80002 1336.7999 L273.6 1326.6001 L273.6 1295.2001 L274.59998 1265.0 L276.2 1195.0 L276.2 1181.8 L276.2 1154.0 L276.0 1139.0 L275.40002 1051.2001 L274.59998 1021.2 L274.2 946.2 L273.8 931.8 L274.59998 917.60004 L275.40002 889.80005 L275.40002 875.4 L275.8 861.2 L275.8 832.2 L276.0 818.6 L276.4 805.0 L276.2 767.2 L276.4 755.80005 L275.40002 710.0 L274.59998 698.0 L275.2 653.6 L275.40002 643.6 L274.2 587.2 L273.4 578.4 L272.80002 556.8 L272.0 542.4 L271.2 522.0 L271.4 516.2 L272.19998 506.8 L272.80002 500.80002 L273.0 495.6 L273.0 495.6" stroke="rgb(25,25,25)" stroke-width="1" fill="none" stroke-linejoin="round" /> <path d="M287.80002 485.2 L292.0 485.6 L305.0 485.2 L317.0 484.19998 L331.8 482.59998 L340.2 482.0 L356.8 480.80002 L393.4 481.0 L403.80002 480.80002 L437.40002 479.4 L448.80002 479.4 L471.0 479.19998 L482.2 479.0 L516.4 478.80002 L547.8 478.6 L567.8 478.80002 L577.4 479.0 L605.80005 480.80002 L642.60004 482.0 L651.8 481.8 L702.60004 480.80002 L732.2 480.80002 L818.0 481.4 L830.0 481.4 L841.8 481.0 L874.80005 480.80002 L905.80005 480.40002 L916.8 479.19998 L938.6 479.4 L962.2 478.80002 L996.2 476.8 L1017.60004 475.80002 L1037.6 474.4 L1048.0 474.0 L1080.4 472.59998 L1102.2 472.0 L1124.4 472.0 L1176.6001 472.2 L1186.8 472.0 L1225.8 471.19998 L1280.0 471.8 L1341.6001 472.8 L1353.6 473.80002 L1374.0 474.0 L1384.0 474.0 L1388.8 474.4 L1404.0 475.0 L1404.0 475.0" stroke="rgb(25,25,25)" stroke-width="1" fill="none" stroke-linejoin="round" /> <path d="M932.60004 1053.6 L975.4 1052.6 L1039.8 1050.4 L1073.6 1050.4 L1080.0 1049.8 L1097.6 1048.6 L1111.2001 1046.8 L1113.6 1045.8 L1113.6 1045.8" stroke="rgb(25,25,25)" stroke-width="1" fill="none" stroke-linejoin="round" /> <path d="M1210.0 1045.0 L1210.0 1045.0 L1210.8 1045.4 L1213.6 1045.8 L1216.6001 1045.8 L1218.6 1045.4 L1230.0 1044.0 L1242.2 1042.6 L1282.4 1040.0 L1300.2001 1039.0 L1309.4 1039.0 L1335.8 1039.4 L1392.4 1036.8 L1402.2 1037.2 L1412.4 1035.8 L1413.2001 1035.8 L1413.8 1035.8 L1415.2001 1035.8 L1418.8 1036.2001 L1419.6001 1036.8 L1423.8 1035.8 L1425.2001 1035.8 L1425.0 1035.8 L1424.6001 1035.8 L1424.0 1036.2001 L1418.8 1036.8 L1418.8 1036.8" stroke="rgb(25,25,25)" stroke-width="1" fill="none" stroke-linejoin="round" /> <path d="M1115.4 1041.8 L1115.4 1041.6001 L1119.4 1043.6 L1120.0 1044.0 L1120.8 1045.8 L1121.6001 1046.8 L1123.6 1049.8 L1127.2 1053.0 L1183.6 1136.6001 L1188.0 1146.8 L1187.6 1148.2 L1186.2001 1150.0 L1186.2001 1150.0" stroke="rgb(25,25,25)" stroke-width="1" fill="none" stroke-linejoin="round" /> <path d="M864.4 475.80002 L864.0 479.0 L868.2 513.4 L869.80005 543.6 L869.80005 551.4 L869.4 578.8 L872.60004 622.0 L872.60004 629.39996 L870.4 667.60004 L869.0 674.4 L869.0 674.4" stroke="rgb(25,25,25)" stroke-width="1" fill="none" stroke-linejoin="round" /> <path d="M1046.8 621.4 L1042.2 621.4 L1041.2001 621.2 L1038.0 620.4 L1022.2 605.60004 L1021.60004 602.4 L1021.8 596.0 L1022.60004 592.2 L1027.6 579.0 L1032.2 570.80005 L1035.0 567.2 L1040.0 561.2 L1055.0 550.60004 L1058.6 549.39996 L1077.6 549.6 L1099.4 562.0 L1101.2001 564.39996 L1106.8 582.4 L1105.8 592.6 L1104.4 595.80005 L1101.8 601.4 L1098.6 605.80005 L1096.8 607.8 L1091.2001 615.0 L1089.0 617.0 L1087.2 618.4 L1083.2 620.60004 L1081.2001 621.8 L1076.2001 623.4 L1071.2001 625.0 L1063.6 624.0 L1061.2001 624.0 L1061.2001 624.0" stroke="rgb(25,25,25)" stroke-width="1" fill="none" stroke-linejoin="round" /> <path d="M1201.6001 1225.0 L1201.6001 1225.0 L1201.8 1224.4 L1202.2 1224.4 L1203.2 1223.6 L1205.8 1220.8 L1208.0 1218.6 L1216.2001 1210.8 L1235.4 1192.2 L1241.2001 1185.8 L1252.2 1173.0 L1257.2 1168.0 L1266.6001 1159.8 L1270.0 1156.6001 L1275.4 1153.0 L1278.2 1151.6001 L1279.8 1151.2001 L1280.0 1150.8 L1279.8 1151.6001 L1279.4 1152.2 L1279.4 1152.6 L1279.4 1153.6 L1279.0 1156.8 L1278.2 1163.6 L1277.6 1168.6 L1276.8 1180.0 L1276.6001 1185.8 L1279.8 1210.4 L1282.2 1215.8 L1283.0 1219.0 L1283.2001 1222.6 L1283.6 1223.6 L1283.6 1224.0 L1283.8 1224.0 L1283.8 1224.0 L1283.6 1224.0 L1283.6 1224.0 L1283.6 1223.6 L1282.6 1224.4 L1282.2 1222.6 L1277.6 1221.6001 L1273.0 1221.6001 L1247.2 1223.6 L1241.8 1224.4 L1225.8 1225.8 L1216.8 1226.6001 L1212.6 1226.8 L1209.0 1226.6001 L1209.0 1226.6001" stroke="rgb(25,25,25)" stroke-width="1" fill="none" stroke-linejoin="round" /> <path d="M433.4 482.2 L433.80002 482.0 L434.0 481.8 L434.0 482.0 L434.0 482.0 L434.0 482.2 L434.0 482.40002 L434.0 482.40002 L433.80002 482.40002 L434.0 482.40002 L434.0 482.40002" stroke="rgb(25,25,25)" stroke-width="1" fill="none" stroke-linejoin="round" /> <path d="M279.4 1076.8 L279.4 1076.8 L279.2 1076.8 L279.4 1077.2 L279.4 1077.2 L279.4 1077.2 L279.4 1077.2 L280.40002 1078.2 L282.0 1079.0 L286.2 1078.6 L287.80002 1078.6 L290.6 1079.0 L294.4 1079.0 L296.2 1079.0 L300.40002 1079.8 L302.80002 1079.4 L313.6 1079.8 L325.80002 1080.0 L330.0 1080.0 L334.19998 1079.0 L340.80002 1079.4 L344.4 1079.4 L367.59998 1078.0 L374.19998 1078.0 L375.80002 1078.6 L376.8 1078.6 L379.4 1078.6 L380.80002 1079.0 L382.8 1079.4 L382.8 1079.0 L382.8 1079.0" stroke="rgb(25,25,25)" stroke-width="1" fill="none" stroke-linejoin="round" /> <path d="M452.0 1077.6 L452.2 1077.6 L452.2 1077.6 L452.2 1077.6 L452.8 1077.6 L455.40002 1077.6 L462.2 1077.6 L463.80002 1077.6 L465.6 1077.2 L467.40002 1078.0 L472.8 1078.0 L479.4 1078.2 L484.0 1078.0 L488.4 1077.6 L492.40002 1078.0 L500.80002 1078.0 L508.4 1078.6 L524.6 1078.6 L530.4 1078.6 L532.8 1078.6 L538.4 1078.6 L539.6 1078.6 L540.60004 1078.6 L542.0 1078.6 L542.0 1078.6 L542.0 1078.2 L542.2 1078.2 L542.4 1078.6 L542.8 1078.2 L544.0 1078.2 L545.60004 1078.0 L548.6 1078.0 L549.19995 1077.6 L551.0 1077.6 L551.8 1078.0 L552.0 1078.0 L552.0 1078.0 L552.2 1078.0 L552.4 1078.0 L552.4 1078.0 L552.4 1078.0 L552.4 1078.0 L552.0 1077.6 L552.0 1077.6" stroke="rgb(25,25,25)" stroke-width="1" fill="none" stroke-linejoin="round" /> <path d="M387.0 1083.6 L387.0 1083.2 L387.0 1083.0 L386.4 1082.6 L386.4 1081.8 L386.8 1081.2001 L387.0 1080.8 L386.8 1081.2001 L386.8 1081.6001 L387.0 1081.2001 L386.8 1081.2001 L386.8 1081.6001 L386.8 1081.2001 L386.8 1081.6001 L386.8 1081.6001 L387.0 1081.8 L387.0 1081.8 L387.8 1082.6 L388.4 1083.0 L388.80002 1083.6 L389.0 1084.0 L389.4 1085.0 L390.80002 1086.8 L392.8 1090.8 L395.40002 1096.6001 L404.59998 1109.0 L407.59998 1112.2 L411.0 1114.4 L413.6 1118.0 L419.0 1124.0 L425.2 1131.2001 L427.40002 1135.0 L430.40002 1137.6 L434.0 1142.2 L436.8 1145.8 L439.19998 1150.0 L440.0 1150.8 L440.6 1151.8 L440.0 1150.4 L440.2 1151.2001 L439.59998 1150.4 L439.0 1149.0 L439.0 1149.0" stroke="rgb(25,25,25)" stroke-width="1" fill="none" stroke-linejoin="round" /> <path d="M360.0 1081.2001 L360.2 1080.8 L360.40002 1080.4 L360.40002 1080.4 L360.40002 1080.4 L360.40002 1080.4 L360.40002 1080.4 L360.40002 1080.4 L360.2 1079.8 L360.2 1079.0 L360.40002 1078.6 L360.2 1078.0 L360.2 1076.8 L360.6 1075.8 L360.80002 1073.0 L360.2 1070.4 L360.0 1062.2 L359.59998 1058.2 L359.0 1051.2001 L359.0 1045.0 L359.0 1035.8 L359.0 1029.0 L358.80002 1021.2 L358.80002 1013.6 L359.4 985.80005 L359.4 981.8 L360.2 975.4 L360.40002 965.80005 L360.6 963.0 L360.80002 958.0 L360.80002 955.4 L360.80002 949.4 L360.6 927.2 L360.6 925.4 L360.2 919.80005 L362.40002 889.0 L362.59998 887.2 L362.8 884.4 L362.8 883.6 L362.8 881.8 L362.8 881.2 L363.0 881.2 L362.8 881.2 L362.8 881.2 L362.8 881.2 L362.8 881.2 L363.0 881.2 L362.8 880.80005 L362.8 880.80005 L362.8 880.80005 L363.0 880.80005 L362.8 880.80005 L362.8 880.80005 L362.8 880.80005 L362.8 880.80005 L362.8 880.80005 L362.8 881.2 L362.8 881.2 L362.8 881.2 L362.8 881.60004 L362.2 880.80005 L362.2 880.80005" stroke="rgb(25,25,25)" stroke-width="1" fill="none" stroke-linejoin="round" /> <path d="M359.19998 879.4 L359.19998 879.4 L359.4 879.0 L359.4 879.0 L359.4 878.6 L359.0 878.0 L359.0 877.60004 L358.80002 877.2 L357.8 876.2 L357.59998 875.4 L357.0 874.0 L355.6 871.8 L354.0 869.4 L352.8 867.2 L343.80002 851.2 L330.40002 830.0 L327.40002 825.4 L326.0 823.6 L317.0 808.6 L315.40002 807.2 L315.0 807.60004 L314.59998 807.2 L313.8 806.8 L312.80002 805.80005 L312.80002 805.80005 L312.80002 805.80005 L312.80002 805.80005" stroke="rgb(25,25,25)" stroke-width="1" fill="none" stroke-linejoin="round" /> <path d="M295.8 630.4 L296.0 630.0 L296.0 630.0 L296.2 630.0 L296.4 630.2 L297.0 629.39996 L297.19998 628.8 L297.80002 627.8 L298.6 626.0 L301.0 621.8 L302.6 618.0 L310.40002 603.8 L312.6 600.60004 L316.0 594.19995 L319.4 589.0 L320.80002 587.2 L321.8 585.4 L322.40002 583.8 L323.80002 584.0 L323.6 582.8 L323.0 582.6 L323.0 582.8 L323.0 582.8 L323.0 582.8 L323.6 583.4 L325.80002 590.80005 L330.0 602.4 L331.0 605.80005 L332.2 609.19995 L335.40002 615.80005 L336.4 618.6 L338.4 622.4 L340.80002 625.80005 L341.8 627.4 L341.4 627.4 L342.2 627.6 L342.2 627.6 L342.0 627.4 L339.4 627.4 L336.8 627.2 L331.4 628.0 L329.4 628.4 L326.4 628.0 L320.0 629.19995 L317.0 629.19995 L313.6 629.0 L307.80002 629.0 L304.4 629.0 L302.0 629.19995 L296.8 629.19995 L292.0 628.4 L289.4 627.8 L289.59998 628.0 L289.4 628.4 L289.2 628.4 L289.59998 628.4 L289.59998 628.4" stroke="rgb(25,25,25)" stroke-width="1" fill="none" stroke-linejoin="round" /> <path d="M393.0 1274.0 L393.0 1274.0 L393.0 1274.0 L393.0 1273.6 L393.4 1273.0 L393.80002 1272.6 L394.0 1271.6001 L395.6 1269.4 L398.6 1263.6 L400.80002 1260.0 L409.59998 1245.0 L417.40002 1233.6 L425.0 1223.6 L430.80002 1216.2001 L433.6 1213.2 L437.2 1209.0 L447.0 1231.8 L449.0 1236.8 L451.0 1241.8 L455.2 1251.2001 L457.0 1255.0 L459.0 1259.4 L462.2 1264.4 L463.80002 1266.8 L464.4 1268.6 L466.0 1270.8 L466.4 1271.8 L466.8 1272.2 L466.19998 1272.2 L465.40002 1272.2 L463.4 1272.6 L459.0 1272.2 L457.0 1272.2 L451.8 1272.6 L446.0 1272.6 L442.8 1272.2 L428.6 1272.6 L424.0 1271.8 L415.40002 1271.6001 L411.0 1270.8 L401.19998 1271.2001 L400.2 1271.8 L397.8 1272.6 L397.2 1273.2 L396.8 1272.6 L395.6 1273.6 L395.6 1273.6" stroke="rgb(25,25,25)" stroke-width="1" fill="none" stroke-linejoin="round" /> <path d="M357.40002 784.0 L357.40002 783.6 L357.40002 783.6" stroke="rgb(25,25,25)" stroke-width="1" fill="none" stroke-linejoin="round" /> <path d="M359.0 774.0 L360.6 776.60004 L360.6 777.60004 L360.40002 778.0 L360.2 778.2 L359.59998 778.6 L359.59998 778.2 L360.0 778.0 L360.0 778.0 L360.2 778.0 L360.2 777.2 L360.40002 776.8 L360.40002 774.0 L360.40002 770.0 L360.6 763.0 L360.80002 760.0 L361.19998 753.6 L362.0 751.2 L363.0 746.2 L363.4 743.6 L364.4 734.4 L365.80002 719.0 L369.19998 678.6 L370.0 675.80005 L370.2 675.0 L370.2 670.0 L370.6 668.2 L370.6 667.60004 L370.80002 666.8 L370.6 666.8 L370.6 666.8 L370.6 666.8 L370.40002 666.8 L370.40002 666.8 L369.4 665.80005 L369.4 665.80005" stroke="rgb(25,25,25)" stroke-width="1" fill="none" stroke-linejoin="round" /> <path d="M371.0 669.0 L372.0 669.0 L372.2 669.0 L373.0 669.0 L374.4 669.0 L375.6 669.4 L380.2 669.0 L382.0 670.0 L384.0 669.0 L392.59998 669.0 L399.4 669.4 L416.4 669.0 L421.19998 668.6 L442.0 667.2 L452.2 665.80005 L471.19998 665.0 L476.19998 664.4 L491.4 663.0 L502.2 661.8 L506.8 662.2 L521.0 660.4 L525.80005 660.4 L535.80005 659.4 L545.80005 659.0 L550.60004 658.6 L559.39996 658.0 L572.0 658.0 L580.80005 657.60004 L584.6 657.60004 L589.19995 657.2 L593.0 657.60004 L617.0 656.8 L620.80005 657.60004 L626.2 657.60004 L627.6 658.6 L629.0 658.6 L633.0 658.6 L637.6 658.6 L643.6 658.0 L646.8 658.0 L659.4 657.2 L665.80005 657.60004 L668.2 658.0 L671.8 657.60004 L682.2 658.0 L690.0 658.6 L702.2 658.6 L708.2 659.80005 L711.8 660.0 L721.60004 660.4 L725.4 660.4 L734.4 660.80005 L740.4 660.4 L749.4 660.80005 L758.0 660.80005 L761.60004 660.80005 L775.80005 661.2 L787.2 661.8 L795.4 663.0 L798.0 662.2 L806.8 662.60004 L810.0 662.60004 L819.4 662.2 L821.8 662.2 L827.60004 661.8 L830.4 662.2 L840.80005 661.8 L843.0 662.2 L851.2 662.2 L856.2 661.8 L856.8 661.8 L858.6 661.60004 L863.0 662.2 L867.60004 661.8 L868.0 661.8 L872.60004 661.2 L886.2 661.8 L912.2 661.8 L920.0 661.8 L922.2 661.8 L924.4 661.60004 L928.6 662.2 L931.2 661.8 L950.0 661.8 L952.2 661.2 L953.6 661.60004 L960.80005 661.8 L963.0 661.2 L969.4 662.60004 L981.2 662.60004 L983.6 662.60004 L987.60004 663.0 L991.2 662.60004 L997.2 663.0 L1000.0 662.60004 L1000.80005 663.0 L1001.8 662.60004 L1001.8 662.60004 L1001.8 660.4 L1001.8 660.4" stroke="rgb(25,25,25)" stroke-width="1" fill="none" stroke-linejoin="round" /> <path d="M1127.6 669.4 L1128.0 669.4 L1128.0 669.4 L1129.0 669.0 L1130.0 669.0 L1131.2001 669.0 L1135.0 669.0 L1136.8 669.0 L1138.6 669.0 L1151.6001 668.0 L1170.8 666.8 L1175.8 667.2 L1193.0 667.2 L1198.0 665.4 L1203.2 667.60004 L1218.2 668.0 L1229.0 668.0 L1234.4 668.0 L1243.6 668.0 L1247.6 668.0 L1251.8 668.0 L1259.4 667.2 L1262.6 667.60004 L1273.0 666.8 L1276.6001 666.60004 L1283.8 666.60004 L1287.2 665.80005 L1291.0 666.8 L1294.6001 666.8 L1309.0 666.2 L1311.7999 666.2 L1324.0 666.8 L1327.4 666.8 L1336.6001 666.60004 L1339.4 666.8 L1349.6001 666.2 L1351.7999 666.2 L1355.0 666.60004 L1357.4 666.2 L1359.6001 666.2 L1363.8 666.60004 L1366.7999 667.2 L1368.2001 666.8 L1370.2001 666.8 L1372.4 666.2 L1373.2001 666.8 L1374.6001 667.2 L1378.8 666.60004 L1380.8 666.2 L1383.2001 666.2 L1383.6 666.2 L1385.8 666.2 L1386.0 666.2 L1386.2 665.80005 L1386.6001 666.2 L1388.6 665.80005 L1390.2001 666.2 L1391.0 666.2 L1392.4 666.2 L1392.6 666.2 L1393.8 666.2 L1395.2001 666.2 L1395.8 666.2 L1396.2 665.80005 L1397.4 666.2 L1398.2001 665.80005 L1398.8 665.80005 L1398.8 666.2 L1398.8 665.80005 L1398.8 666.2 L1398.8 665.80005 L1398.8 666.2 L1398.8 666.2 L1398.8 666.60004 L1398.8 666.2 L1399.6001 665.4 L1398.8 665.80005 L1398.8 665.80005 L1398.6 665.80005 L1398.6 665.80005" stroke="rgb(25,25,25)" stroke-width="1" fill="none" stroke-linejoin="round" /> <path d="M1132.2 668.0 L1131.8 668.0 L1132.2 668.0 L1132.2 667.60004 L1132.2 668.0 L1132.6 667.60004 L1132.2 668.0 L1131.8 668.2 L1131.2001 669.0 L1129.4 671.2 L1128.2 672.2 L1127.2 673.2 L1125.4 675.4 L1121.8 678.6 L1120.4 680.80005 L1118.0 681.2 L1117.2 683.6 L1110.8 690.80005 L1105.4 696.60004 L1104.0 698.0 L1097.2 704.0 L1094.4 706.60004 L1093.0 708.0 L1091.2001 709.80005 L1088.2 712.2 L1084.0 716.2 L1082.2 717.2 L1080.0 719.4 L1078.2 720.80005 L1077.2 722.2 L1075.4 724.0 L1073.6 725.80005 L1072.6 726.2 L1071.2001 727.60004 L1069.4 730.4 L1068.6 731.2 L1067.2 733.2 L1066.6001 733.6 L1066.6001 733.6 L1066.2001 734.0 L1066.2001 734.0 L1066.2001 734.0 L1066.6001 734.0 L1065.8 733.6 L1065.4 733.6 L1065.4 733.6 L1065.4 733.6" stroke="rgb(25,25,25)" stroke-width="1" fill="none" stroke-linejoin="round" /> </svg>