<svg width="1818.4523" height="2360.1191" xmlns="http://www.w3.org/2000/svg" version="1.1" xmlns:xlink="http://www.w3.org/1999/xlink" >
<path d="M1121.2001 475.80002 L1121.6001 476.0 L1121.6001 476.0 L1121.8 476.19998 L1121.8 476.8 L1121.8 478.0 L1121.8 479.19998 L1121.8 481.0 L1121.6001 487.2 L1121.2001 497.59998 L1122.2 500.80002 L1121.2001 504.0 L1121.8 534.19995 L1123.0 554.0 L1125.4 602.2 L1125.0 618.4 L1126.2001 630.60004 L1126.2001 634.19995 L1127.2 642.2 L1128.0 653.6 L1128.6 712.60004 L1128.6 749.0 L1128.2 757.60004 L1127.6 770.0 L1126.8 781.8 L1125.0 798.0 L1124.4 814.0 L1124.0 825.0 L1124.0 839.4 L1124.4 843.0 L1124.0 857.2 L1123.6 867.2 L1124.0 885.0 L1125.0 906.60004 L1125.4 910.0 L1124.4 912.60004 L1123.6 939.80005 L1124.0 946.2 L1123.6 965.4 L1123.6 975.80005 L1124.0 991.2 L1124.0 1001.2 L1123.0 1009.0 L1122.6 1015.4 L1122.2 1017.60004 L1122.6 1020.4 L1123.0 1027.6 L1122.6 1031.6001 L1122.6 1043.6 L1122.2 1051.2001 L1121.6001 1061.2001 L1121.2001 1068.0 L1121.2001 1074.4 L1121.6001 1075.8 L1121.8 1078.6 L1122.2 1080.8 L1122.2 1082.6 L1122.2 1084.0 L1122.2 1088.0 L1122.2 1088.6 L1121.8 1089.0 L1121.6001 1088.6 L1121.2001 1088.0 L1119.8 1086.2001 L1119.8 1086.2001" stroke="rgb(25,25,25)" stroke-width="1" fill="none" stroke-linejoin="round" /> 
<path d="M1123.6 1084.4 L1123.6 1084.4 L1123.6 1084.4 L1123.6 1084.8 L1123.6 1085.0 L1123.6 1085.0 L1123.0 1085.4 L1122.6 1085.4 L1121.8 1085.4 L1120.4 1085.4 L1119.0 1085.8 L1117.2 1085.8 L1114.8 1086.6001 L1103.0 1087.6 L1099.4 1087.6 L1087.2 1088.0 L1034.4 1088.2 L1014.4 1087.6 L929.80005 1085.8 L883.6 1084.0 L835.4 1081.2001 L763.6 1078.6 L670.80005 1073.6 L557.2 1070.0 L517.4 1069.4 L435.40002 1070.0 L365.2 1073.2 L355.0 1075.4 L352.8 1075.4 L351.4 1075.4 L350.80002 1075.4 L350.40002 1075.4 L350.40002 1075.0 L350.40002 1075.4 L350.80002 1075.8 L350.80002 1075.8" stroke="rgb(25,25,25)" stroke-width="1" fill="none" stroke-linejoin="round" /> 
<path d="M347.40002 1086.6001 L347.2 1086.2001 L347.2 1086.2001 L347.0 1085.8 L347.2 1085.0 L347.40002 1083.6 L347.8 1080.4 L348.6 1063.6 L351.19998 1030.4 L359.19998 948.0 L365.80002 884.0 L368.80002 845.4 L371.8 805.80005 L372.40002 783.6 L373.4 669.4 L372.2 644.80005 L371.8 626.0 L370.2 608.0 L369.19998 581.8 L368.6 576.2 L370.2 513.6 L370.6 489.59998 L370.40002 486.0 L369.59998 484.0 L369.59998 482.8 L369.4 482.2 L369.4 482.2 L369.19998 482.40002 L369.19998 482.59998 L369.19998 484.19998 L369.19998 484.19998" stroke="rgb(25,25,25)" stroke-width="1" fill="none" stroke-linejoin="round" /> 
<path d="M363.80002 473.80002 L364.19998 473.80002 L365.0 473.6 L366.0 473.6 L367.40002 473.4 L374.0 472.8 L380.0 473.4 L387.0 473.80002 L395.80002 474.4 L432.40002 475.2 L452.40002 475.6 L506.8 474.19998 L627.8 470.80002 L681.60004 470.40002 L718.2 469.0 L753.2 469.4 L800.80005 470.0 L868.6 470.6 L900.80005 471.19998 L932.60004 472.40002 L977.2 474.4 L1024.4 478.0 L1041.8 480.0 L1064.4 481.19998 L1094.0 481.8 L1105.0 482.40002 L1108.0 483.0 L1120.4 484.0 L1126.8 483.80002 L1126.8 483.80002 L1126.2001 483.4 L1125.8 482.2 L1125.8 482.2" stroke="rgb(25,25,25)" stroke-width="1" fill="none" stroke-linejoin="round" /> <path d="M372.8 650.4 L372.8 650.4 L373.0 650.4 L374.19998 650.80005 L378.0 650.80005 L380.0 650.80005 L382.0 650.4 L385.80002 650.4 L401.4 651.2 L405.6 651.2 L409.19998 650.80005 L433.0 649.4 L496.0 646.2 L514.6 645.4 L550.80005 645.80005 L619.19995 647.60004 L640.80005 648.6 L653.0 648.2 L660.4 648.6 L664.0 648.6 L665.80005 649.4 L666.60004 649.4 L667.60004 649.80005 L668.6 650.4 L670.0 650.4 L674.0 650.80005 L675.80005 651.2 L683.0 650.4 L683.6 650.4 L684.0 650.4 L685.0 650.4 L685.80005 650.4 L686.8 650.4 L687.2 650.0 L688.2 650.0 L689.4 650.4 L690.4 650.4 L691.60004 650.4 L693.0 650.4 L695.80005 650.0 L695.80005 649.4 L695.4 649.4 L694.4 649.0 L694.4 649.0" stroke="rgb(25,25,25)" stroke-width="1" fill="none" stroke-linejoin="round" /> 
<path d="M697.2 649.4 L697.2 649.4 L696.2 649.4 L696.2 650.0 L695.80005 651.2 L696.8 651.8 L696.2 652.2 L695.80005 653.0 L696.2 654.0 L696.2 655.4 L696.2 656.2 L696.2 660.4 L696.60004 662.60004 L696.8 671.60004 L695.80005 674.4 L695.80005 684.80005 L695.0 710.4 L694.4 714.0 L694.4 728.2 L694.4 730.4 L694.80005 733.0 L694.4 753.0 L693.6 760.4 L693.6 760.80005 L693.6 761.2 L694.0 761.8 L694.0 761.8 L694.0 761.8" stroke="rgb(25,25,25)" stroke-width="1" fill="none" stroke-linejoin="round" /> 
<path d="M696.2 853.6 L695.80005 854.0 L696.2 855.0 L695.80005 855.80005 L696.2 856.8 L696.2 860.4 L696.8 862.60004 L696.8 871.8 L697.2 884.0 L696.2 900.80005 L696.2 909.0 L695.4 916.8 L695.0 920.0 L695.0 926.8 L695.80005 930.4 L695.0 933.2 L694.80005 944.0 L692.2 965.0 L692.2 968.0 L690.4 984.80005 L689.80005 995.0 L689.4 1010.0 L688.6 1015.4 L688.6 1021.2 L687.60004 1037.6 L686.8 1044.4 L687.2 1045.8 L687.60004 1049.0 L687.60004 1054.8 L687.2 1057.2 L687.2 1058.6 L687.2 1059.4 L687.2 1060.0 L686.8 1060.4 L687.2 1061.2001 L687.2 1061.6001 L687.2 1062.2 L687.60004 1063.0 L686.8 1063.6 L687.60004 1065.4 L687.60004 1066.8 L687.60004 1071.6001 L687.2 1072.6 L687.2 1074.8 L687.2 1075.4 L687.60004 1075.8 L687.2 1076.8 L687.2 1078.6 L687.2 1079.4 L687.2 1080.4 L687.2 1081.2001 L687.60004 1081.6001 L687.2 1081.6001 L687.2 1081.2001 L686.8 1080.8 L685.4 1080.0 L685.4 1080.0" stroke="rgb(25,25,25)" stroke-width="1" fill="none" stroke-linejoin="round" /> 
<path d="M954.0 646.2 L954.80005 646.2 L955.4 646.2 L957.60004 645.4 L961.2 645.4 L963.6 645.0 L966.2 645.0 L978.0 645.0 L994.4 644.0 L1039.4 644.0 L1057.6 645.0 L1093.2 646.2 L1105.4 646.2 L1106.8 646.60004 L1108.6 646.60004 L1109.8 646.8 L1110.8 646.60004 L1112.2 646.8 L1115.0 646.8 L1121.2001 647.60004 L1123.0 648.0 L1124.8 648.0 L1125.8 648.2 L1127.2 648.2 L1128.0 648.6 L1128.6 648.6 L1130.8 648.6 L1131.8 648.6 L1134.4 648.6 L1134.4 648.2 L1134.0 648.0 L1134.0 648.0 L1134.0 647.2 L1134.0 647.2" stroke="rgb(25,25,25)" stroke-width="1" fill="none" stroke-linejoin="round" /> <path d="M952.2 644.4 L952.2 644.4 L952.60004 645.0 L952.60004 645.80005 L952.60004 646.8 L953.0 648.0 L952.60004 649.4 L953.0 652.60004 L953.2 655.80005 L953.0 671.8 L953.2 680.4 L953.0 685.0 L952.60004 699.0 L951.2 718.0 L951.2 724.4 L951.2 729.0 L952.2 734.4 L952.2 735.4 L952.2 735.80005 L952.60004 736.8 L951.8 740.4 L951.2 745.0 L950.80005 746.2 L950.80005 746.2 L950.80005 745.80005 L950.80005 744.4 L950.80005 744.4" stroke="rgb(25,25,25)" stroke-width="1" fill="none" stroke-linejoin="round" /> 
<path d="M950.80005 952.2 L951.2 952.60004 L951.2 952.60004 L951.2 953.0 L950.4 952.60004 L950.4 953.0 L950.4 953.6 L951.2 955.0 L950.80005 956.2 L950.4 968.6 L951.2 972.2 L951.60004 980.0 L951.60004 983.6 L951.2 991.60004 L950.4 1006.2 L950.0 1023.2 L949.4 1035.8 L948.6 1041.8 L948.0 1046.8 L947.60004 1057.6 L947.2 1062.6 L947.2 1068.2 L947.2 1069.0 L947.2 1070.0 L947.60004 1070.4 L947.60004 1071.2001 L948.0 1071.6001 L948.0 1072.2 L948.0 1073.6 L948.0 1075.4 L948.0 1076.8 L948.0 1077.6 L947.60004 1078.0 L947.60004 1078.6 L947.60004 1078.6 L947.2 1078.2 L947.2 1078.6 L947.2 1078.2 L947.2 1078.0 L947.2 1078.0" stroke="rgb(25,25,25)" stroke-width="1" fill="none" stroke-linejoin="round" /> 
<path d="M696.2 855.80005 L695.80005 855.80005 L695.4 855.80005 L695.80005 856.2 L696.2 856.60004 L696.60004 856.2 L696.60004 856.2 L696.8 856.2 L696.60004 856.2 L696.60004 856.2 L696.2 855.80005 L695.4 855.0 L694.0 852.60004 L693.2 851.8 L692.60004 851.2 L692.2 850.0 L691.2 849.4 L690.80005 848.0 L689.80005 847.60004 L688.6 846.60004 L686.8 845.4 L685.4 843.6 L682.2 840.4 L681.2 840.0 L676.2 835.4 L673.2 833.0 L669.0 830.4 L657.60004 823.6 L656.2 821.8 L653.6 820.0 L652.2 819.4 L651.2 817.60004 L650.0 816.8 L643.6 813.0 L641.2 811.2 L639.19995 809.4 L638.4 809.0 L637.6 809.0 L637.4 808.6 L636.2 808.6 L633.0 805.80005 L628.6 802.60004 L627.6 801.8 L624.6 800.0 L622.2 797.60004 L618.6 795.4 L616.8 794.0 L614.39996 792.60004 L613.6 791.8 L612.0 790.0 L598.8 781.2 L594.19995 777.60004 L591.0 776.2 L587.4 774.4 L582.8 771.60004 L581.4 770.80005 L581.0 770.80005 L579.0 769.0 L577.6 768.2 L577.6 768.2 L577.6 768.2 L577.6 768.2 L577.6 768.2 L577.4 768.2 L577.4 768.2" stroke="rgb(25,25,25)" stroke-width="1" fill="none" stroke-linejoin="round" /> 
<path d="M952.60004 951.8 L952.2 952.2 L952.2 952.2 L952.2 952.2 L952.60004 951.8 L953.2 951.60004 L953.6 951.2 L954.0 950.80005 L954.4 950.4 L954.80005 950.0 L955.0 949.4 L956.8 948.0 L957.2 947.60004 L958.2 947.2 L959.4 946.2 L963.0 943.6 L968.6 940.0 L971.2 937.60004 L994.80005 924.0 L1005.80005 916.60004 L1020.4 907.60004 L1022.60004 905.80005 L1025.4 904.80005 L1030.4 901.2 L1036.8 897.60004 L1037.6 896.8 L1038.0 896.60004 L1038.6 896.2 L1038.2 896.2 L1038.2 896.60004 L1037.6 896.8 L1036.8 897.2 L1036.8 897.2" stroke="rgb(25,25,25)" stroke-width="1" fill="none" stroke-linejoin="round" /> <path d="M1039.4 824.4 L1038.6 824.4 L1038.0 824.4 L1037.2 824.80005 L1036.2001 825.0 L1035.4 824.80005 L1034.4 824.0 L1033.6 823.6 L1032.6 823.0 L1031.6001 822.60004 L1030.0 821.8 L1027.2 820.0 L1025.4 819.0 L1021.8 816.60004 L1019.0 814.0 L1016.8 811.2 L1015.4 808.0 L1014.4 804.0 L1014.0 800.80005 L1015.4 795.4 L1016.2 792.60004 L1019.4 787.2 L1022.60004 783.6 L1025.4 780.4 L1030.0 777.2 L1037.2 774.0 L1041.6001 772.60004 L1045.4 771.2 L1049.0 770.4 L1052.2 770.0 L1054.4 770.80005 L1060.8 774.80005 L1062.2 775.80005 L1065.0 776.8 L1068.0 779.0 L1072.2 784.0 L1074.0 787.2 L1075.0 790.0 L1075.4 794.0 L1075.4 797.60004 L1075.4 799.0 L1075.0 800.4 L1075.0 801.8 L1075.0 802.2 L1074.4 803.6 L1072.6 810.0 L1071.8 811.60004 L1069.0 815.4 L1068.0 816.60004 L1065.8 818.0 L1065.4 818.0 L1065.0 818.2 L1064.0 818.6 L1063.0 819.0 L1059.4 821.2 L1058.6 821.60004 L1057.2 821.8 L1056.2001 822.2 L1054.0 823.2 L1053.0 824.80005 L1052.2 824.4 L1051.6001 825.0 L1050.4 826.8 L1050.0 826.60004 L1049.8 826.2 L1049.4 826.2 L1049.0 826.2 L1048.2 826.60004 L1047.6 826.8 L1047.2 826.8 L1046.2001 827.2 L1045.0 828.0 L1044.0 829.0 L1044.0 829.0" stroke="rgb(25,25,25)" stroke-width="1" fill="none" stroke-linejoin="round" /> </svg>