<svg width="1818.4523" height="2360.1191" xmlns="http://www.w3.org/2000/svg" version="1.1" xmlns:xlink="http://www.w3.org/1999/xlink" ><path d="M337.40002 477.40002 L337.40002 477.2 L337.8 477.40002 L339.0 477.2 L340.2 477.0 L341.0 476.8 L342.40002 476.0 L344.0 475.80002 L351.0 475.40002 L354.59998 475.0 L359.19998 475.0 L375.40002 474.0 L381.0 474.59998 L443.0 472.59998 L463.4 472.59998 L482.0 473.4 L500.6 473.80002 L510.2 473.80002 L553.4 472.0 L574.39996 471.8 L584.19995 471.8 L593.6 471.19998 L611.2 471.0 L620.4 470.80002 L638.8 470.6 L668.2 469.19998 L678.6 469.0 L698.0 469.19998 L718.0 469.59998 L728.0 470.2 L749.0 470.80002 L760.0 471.19998 L782.60004 471.4 L794.4 471.4 L819.0 470.80002 L843.2 470.80002 L865.80005 471.19998 L877.2 472.0 L900.4 473.0 L924.4 473.6 L949.4 473.0 L961.8 472.8 L986.8 472.40002 L1010.0 472.40002 L1030.8 472.40002 L1040.8 472.59998 L1086.8 472.8 L1111.8 472.40002 L1123.6 472.40002 L1159.0 471.4 L1169.4 471.19998 L1228.0 469.4 L1257.2 469.19998 L1266.8 468.80002 L1275.8 468.6 L1291.0 469.4 L1297.6 470.0 L1316.0 470.6 L1327.6 471.8 L1333.8 472.40002 L1348.8 474.0 L1352.4 474.19998 L1355.8 474.59998 L1362.4 475.0 L1362.4 475.0" stroke="rgb(25,25,25)" stroke-width="1" fill="none" stroke-linejoin="round" /> 



<path d="M1365.3999 480.40002 L1367.2 480.80002 L1367.6 498.6 L1368.0 505.80002 L1368.6 515.0 L1369.4 544.0 L1370.2001 556.0 L1371.0 561.8 L1376.2 600.2 L1376.6001 607.2 L1378.0 630.2 L1378.6 638.4 L1379.0 690.80005 L1381.0 717.2 L1383.0 744.0 L1383.0 823.0 L1383.6 831.2 L1385.0 855.0 L1385.0 863.0 L1384.0 879.4 L1381.6001 905.4 L1379.6001 922.2 L1374.6001 986.2 L1373.6 993.6 L1373.0 1015.4 L1372.2 1047.6 L1372.4 1054.0 L1372.4 1067.6 L1371.6001 1101.2001 L1373.8 1140.0 L1374.0 1146.2001 L1374.4 1159.0 L1380.2001 1234.8 L1381.0 1240.4 L1382.2 1246.8 L1384.6001 1267.6 L1385.2001 1273.0 L1385.2001 1278.2 L1388.2001 1307.6 L1389.0 1309.6001 L1389.6001 1317.4 L1388.8 1319.4 L1388.8 1319.4" stroke="rgb(25,25,25)" stroke-width="1" fill="none" stroke-linejoin="round" /> <path d="M1374.0 1322.4 L1365.2001 1323.8 L1336.6001 1325.8 L1261.2001 1325.2001 L1237.6 1324.0 L1152.2 1321.7999 L864.4 1322.2 L801.2 1323.0 L785.80005 1323.2001 L770.4 1323.2001 L583.6 1323.8 L550.0 1324.4 L539.0 1324.4 L489.0 1324.6001 L461.19998 1324.4 L420.80002 1325.0 L413.0 1325.2001 L374.19998 1323.8 L362.40002 1324.0 L350.80002 1324.0 L341.0 1325.2001 L341.0 1325.2001" stroke="rgb(25,25,25)" stroke-width="1" fill="none" stroke-linejoin="round" /> <path d="M335.2 1334.6001 L335.2 1335.0 L336.19998 1331.0 L335.80002 1321.2 L335.40002 1316.6001 L333.80002 1305.8 L332.2 1288.2001 L332.0 1281.6001 L332.0 1267.2 L330.80002 1232.6 L329.4 1164.0 L328.80002 1146.2001 L327.40002 1126.8 L327.0 1117.2 L326.19998 1098.0 L325.40002 1080.8 L325.2 1073.0 L324.19998 1055.0 L324.4 1037.2 L324.4 1027.2 L324.19998 1016.8 L323.80002 985.4 L323.6 925.80005 L324.0 916.8 L325.0 865.4 L325.2 855.0 L325.80002 834.4 L326.0 824.0 L329.0 807.60004 L329.0 797.60004 L330.80002 776.8 L332.40002 755.80005 L333.6 745.4 L337.59998 697.60004 L338.4 689.4 L340.6 658.2 L343.4 627.2 L344.0 619.0 L344.4 611.8 L345.6 592.2 L345.6 586.4 L346.0 571.8 L345.2 545.80005 L345.0 540.80005 L344.4 515.80005 L344.4 507.8 L344.0 503.80002 L344.0 497.2 L343.6 493.80002 L342.59998 485.80002 L344.4 477.40002 L345.6 474.59998 L345.6 474.59998" stroke="rgb(25,25,25)" stroke-width="1" fill="none" stroke-linejoin="round" /> <path d="M327.0 758.0 L328.4 758.0 L329.19998 758.0 L337.40002 758.2 L339.59998 758.6 L342.59998 759.0 L351.0 759.80005 L383.0 760.80005 L390.80002 761.8 L427.8 764.0 L449.4 764.4 L461.0 764.0 L473.4 765.0 L496.19998 766.8 L507.40002 768.2 L590.80005 775.0 L628.8 780.4 L639.0 781.8 L656.8 784.4 L664.0 784.80005 L665.80005 785.4 L666.8 786.2 L668.0 786.2 L673.0 787.2 L673.0 787.2 L672.60004 787.2 L672.2 787.2 L672.2 787.2" stroke="rgb(25,25,25)" stroke-width="1" fill="none" stroke-linejoin="round" /> <path d="M874.4 791.60004 L874.4 791.2 L875.0 791.2 L876.2 791.2 L877.60004 791.2 L880.0 791.2 L882.2 790.80005 L885.0 791.2 L888.0 791.60004 L895.4 791.8 L922.2 791.2 L929.0 791.2 L944.0 791.2 L952.2 791.2 L969.0 791.60004 L986.60004 792.2 L995.80005 792.2 L1078.0 794.4 L1113.0 795.0 L1153.0 796.60004 L1169.0 796.8 L1176.8 797.2 L1184.8 797.60004 L1226.8 797.60004 L1233.6 798.0 L1260.0 798.0 L1272.2 798.6 L1278.6 798.0 L1294.6001 799.4 L1303.8 799.80005 L1308.2001 799.80005 L1318.2001 800.0 L1323.2001 800.0 L1332.2 799.80005 L1340.2001 800.4 L1343.2001 800.4 L1349.6001 800.80005 L1352.6 800.80005 L1355.3999 800.4 L1358.2001 800.80005 L1373.8 800.80005" stroke="rgb(25,25,25)" stroke-width="1" fill="none" stroke-linejoin="round" /> 



<path d="M688.0 780.0 L703.0 766.8 L710.80005 760.80005 L727.2 746.8 L736.60004 740.4 L754.80005 726.2 L807.2 685.80005 L813.2 681.2 L818.2 677.60004 L827.60004 672.2 L829.0 670.80005 L829.0 670.80005" stroke="rgb(25,25,25)" stroke-width="1" fill="none" stroke-linejoin="round" /> 

<path d="M1136.8 793.0 L1136.8 793.0 L1137.2 792.60004 L1137.2 792.60004 L1137.2 792.60004 L1137.2 792.60004 L1137.2 793.6 L1137.6 793.6 L1137.6 794.0 L1137.6 795.4 L1139.0 798.6 L1138.2 801.2 L1137.6 810.0 L1137.2 814.0 L1135.8 829.0 L1135.0 837.60004 L1135.4 842.60004 L1135.0 847.2 L1134.8 863.6 L1133.6 875.0 L1133.2 881.2 L1133.0 886.2 L1130.0 906.2 L1130.0 911.8 L1130.0 922.60004 L1129.4 928.0 L1129.4 950.0 L1129.4 954.4 L1129.4 962.2 L1129.0 971.2 L1128.6 975.4 L1127.6 993.0 L1127.2 994.80005 L1127.6 996.60004 L1127.6 997.2 L1128.0 997.60004 L1128.0 997.60004" stroke="rgb(25,25,25)" stroke-width="1" fill="none" stroke-linejoin="round" /> <path d="M1125.4 1107.2 L1125.4 1106.6001 L1125.4 1106.2001 L1125.4 1106.2001 L1125.4 1106.2001 L1125.4 1106.6001 L1125.4 1106.8 L1125.4 1106.8 L1125.4 1107.2 L1126.2001 1108.2 L1126.2001 1112.6 L1126.2001 1117.6 L1126.6001 1120.4 L1126.8 1126.6001 L1126.8 1129.4 L1126.8 1137.2 L1126.2001 1140.8 L1126.2001 1163.2 L1126.8 1168.0 L1126.6001 1171.8 L1128.2 1182.6 L1130.0 1195.8 L1130.0 1200.0 L1130.0 1204.4 L1129.0 1212.6 L1127.2 1215.4 L1128.0 1222.2 L1128.0 1225.4 L1128.6 1235.0 L1129.0 1242.2 L1129.4 1249.0 L1129.0 1251.8 L1129.4 1257.2 L1129.8 1260.0 L1129.8 1265.8 L1129.8 1271.8 L1129.8 1275.0 L1130.0 1282.6 L1129.8 1288.0 L1129.4 1289.6001 L1129.8 1291.2 L1129.8 1301.0 L1129.8 1303.2001 L1130.4 1307.4 L1130.0 1323.6 L1129.4 1323.8 L1129.8 1324.6001 L1130.0 1327.4 L1130.0 1327.6 L1130.0 1327.4 L1130.4 1326.7999 L1130.0 1326.6001 L1130.0 1326.6001" stroke="rgb(25,25,25)" stroke-width="1" fill="none" stroke-linejoin="round" /> <path d="M565.2 781.2 L564.39996 780.80005 L564.39996 780.80005" stroke="rgb(25,25,25)" stroke-width="1" fill="none" stroke-linejoin="round" /> <path d="M564.0 779.80005 L563.8 779.4 L563.6 777.60004 L563.4 773.6 L564.0 773.6 L563.6 773.0 L563.6 773.0 L562.6 780.4 L562.4 783.6 L562.0 791.8 L560.80005 801.8 L560.4 807.2 L559.0 820.0 L558.4 834.4 L557.6 842.60004 L555.4 895.80005 L551.4 969.80005 L551.0 978.2 L550.4 995.0 L549.39996 1014.0 L550.4 1019.4 L550.2 1024.4 L550.80005 1041.2001 L550.4 1046.8 L549.39996 1070.4 L549.19995 1076.2001 L549.39996 1086.2001 L549.39996 1091.2001 L549.39996 1102.2 L549.39996 1108.0 L549.6 1114.4 L549.0 1137.6 L549.0 1143.0 L548.0 1148.0 L547.4 1164.4 L547.0 1176.6001 L546.2 1182.2 L545.80005 1187.6 L545.80005 1197.6 L545.60004 1202.2 L545.2 1206.2001 L544.6 1211.6001 L545.0 1213.6 L544.39996 1214.0 L544.6 1214.4 L545.2 1213.6 L545.2 1213.6" stroke="rgb(25,25,25)" stroke-width="1" fill="none" stroke-linejoin="round" /> <path d="M540.80005 1204.4 L540.80005 1204.4 L541.2 1204.4 L545.60004 1204.4 L549.0 1204.4 L557.6 1205.4 L562.2 1205.0 L576.4 1203.6 L581.4 1205.0 L594.19995 1204.4 L639.6 1201.8 L661.2 1200.4 L691.2 1199.4 L700.0 1199.0 L708.2 1198.6 L756.2 1195.4 L762.2 1195.0 L779.4 1194.4 L781.8 1194.0 L787.60004 1194.0 L788.2 1194.0 L788.2 1193.6 L788.0 1193.0 L788.0 1193.0" stroke="rgb(25,25,25)" stroke-width="1" fill="none" stroke-linejoin="round" /> <path d="M918.6 1194.8 L920.0 1194.0 L920.80005 1194.4 L921.8 1194.4 L925.0 1195.0 L928.0 1195.0 L931.8 1195.4 L941.2 1195.8 L968.0 1196.6001 L975.0 1196.8 L1034.0 1196.2001 L1058.0 1197.2 L1069.8 1197.2 L1075.0 1197.2 L1084.0 1197.6 L1089.0 1197.6 L1103.6 1196.8 L1116.8 1196.8 L1118.6 1196.8 L1121.2001 1196.8 L1121.2001 1196.8 L1121.6001 1196.8 L1121.2001 1196.8 L1121.2001 1196.8 L1121.2001 1196.8 L1121.2001 1196.8 L1121.6001 1196.8 L1121.8 1196.8 L1121.8 1196.8" stroke="rgb(25,25,25)" stroke-width="1" fill="none" stroke-linejoin="round" /> <path d="M783.2 1194.0 L783.0 1194.0 L782.60004 1194.0 L783.0 1193.6 L784.0 1193.2 L784.4 1193.2 L784.80005 1193.6 L785.80005 1193.6 L786.2 1193.6 L786.8 1193.6 L787.60004 1194.0 L788.0 1194.4 L789.0 1195.0 L790.80005 1195.8 L792.2 1197.2 L794.0 1198.2 L797.60004 1200.4 L799.80005 1201.8 L805.0 1207.2 L807.60004 1209.0 L816.2 1215.8 L819.0 1218.0 L825.4 1222.6 L837.2 1232.6 L840.80005 1235.0 L850.80005 1241.2001 L862.2 1249.4 L864.0 1251.6001 L867.2 1254.8 L870.0 1257.6 L873.6 1260.4 L873.6 1260.4" stroke="rgb(25,25,25)" stroke-width="1" fill="none" stroke-linejoin="round" /> <path d="M1122.2 1109.4 L1121.8 1109.8 L1121.8 1109.8 L1121.6001 1109.8 L1121.6001 1110.0 L1121.2001 1110.0 L1121.8 1110.0 L1122.6 1110.0 L1123.2 1109.4 L1123.6 1108.6 L1124.4 1108.0 L1125.8 1107.2 L1127.6 1106.2001 L1134.0 1100.4 L1157.2 1079.4 L1164.4 1072.6 L1181.8 1057.2 L1190.0 1050.0 L1205.8 1037.2 L1227.6 1020.0 L1230.4 1018.0 L1231.6001 1016.8 L1231.8 1016.8 L1231.6001 1016.8 L1231.2001 1016.8 L1231.2001 1016.8" stroke="rgb(25,25,25)" stroke-width="1" fill="none" stroke-linejoin="round" /> <path d="M995.4 678.6 L994.0 678.0 L992.60004 677.60004 L988.6 675.4 L987.2 674.4 L986.2 673.0 L985.0 671.60004 L982.60004 666.8 L982.2 664.80005 L980.80005 658.2 L980.80005 656.2 L981.8 650.4 L982.60004 646.8 L986.8 635.60004 L995.0 623.4 L997.60004 619.19995 L1013.6 606.4 L1017.2 605.0 L1020.80005 604.0 L1028.0 603.4 L1031.6001 603.6 L1034.8 603.6 L1045.0 608.8 L1051.2001 612.4 L1056.8 619.0 L1059.0 622.4 L1061.2001 625.60004 L1064.4 631.2 L1065.4 634.39996 L1066.6001 637.4 L1067.6 644.4 L1066.2001 655.4 L1065.4 658.6 L1065.0 662.2 L1063.6 665.4 L1060.8 670.80005 L1054.4 679.0 L1052.2 682.60004 L1047.6 686.2 L1042.6 689.4 L1040.0 691.2 L1037.2 692.2 L1034.4 693.0 L1023.0 695.0 L1015.80005 693.6 L1012.60004 693.6 L1002.60004 691.8 L1000.0 690.4 L1000.0 690.4" stroke="rgb(25,25,25)" stroke-width="1" fill="none" stroke-linejoin="round" /> </svg>