<svg width="1818.4523" height="2360.1191" xmlns="http://www.w3.org/2000/svg" version="1.1" xmlns:xlink="http://www.w3.org/1999/xlink" ><path d="M279.59998 392.40002 L280.0 392.40002 L280.6 392.40002 L281.2 392.59998 L282.0 392.40002 L282.6 392.59998 L283.4 392.40002 L284.2 392.40002 L285.0 392.59998 L286.2 392.59998 L287.6 392.40002 L291.2 393.0 L299.4 393.80002 L302.80002 394.0 L304.4 394.0 L306.2 394.0 L311.4 393.80002 L317.0 393.6 L340.0 393.4 L343.80002 393.6 L349.0 394.0 L354.19998 394.0 L357.0 393.6 L361.4 393.4 L365.80002 393.0 L371.8 393.6 L391.8 394.0 L400.80002 393.4 L412.2 394.0 L426.0 394.19998 L433.80002 394.59998 L437.0 395.80002 L439.0 395.2 L442.59998 395.40002 L445.80002 395.40002 L446.4 395.2 L447.59998 395.2 L448.0 395.0 L450.0 395.0 L450.40002 394.59998 L451.0 394.59998 L450.80002 394.4 L450.6 394.4 L450.40002 394.19998 L450.0 393.80002 L450.0 393.80002" stroke="rgb(25,25,25)" stroke-width="1" fill="none" stroke-linejoin="round" /> <path d="M448.0 393.6 L448.0 393.4 L448.0 393.4 L448.0 393.4 L448.0 393.4 L448.6 393.4 L448.6 393.6 L448.6 393.6 L448.80002 393.80002 L448.6 396.4 L448.4 397.40002 L448.4 400.6 L448.0 402.0 L448.4 402.59998 L448.4 404.0 L447.8 406.8 L447.40002 408.0 L447.40002 419.4 L447.2 420.80002 L447.2 427.59998 L447.40002 429.59998 L447.59998 437.0 L447.40002 447.0 L447.59998 451.0 L447.59998 462.2 L447.40002 472.40002 L447.40002 484.4 L447.40002 490.80002 L447.59998 499.0 L447.8 500.80002 L447.59998 504.19998 L447.40002 508.6 L447.59998 509.19998 L447.40002 514.0 L447.40002 521.4 L447.40002 523.8 L447.59998 530.80005 L447.8 534.19995 L448.0 540.80005 L448.4 545.60004 L448.6 551.0 L448.80002 552.2 L448.80002 553.6 L449.0 554.0 L449.0 559.39996 L448.80002 559.39996 L448.80002 559.19995 L448.80002 559.19995 L448.6 559.0 L448.6 558.6 L448.6 558.6" stroke="rgb(25,25,25)" stroke-width="1" fill="none" stroke-linejoin="round" /> <path d="M452.0 558.8 L452.0 558.8 L452.0 558.8 L452.2 559.0 L452.59998 559.0 L453.0 559.0 L453.80002 559.0 L454.59998 559.0 L456.8 559.0 L457.8 559.0 L459.0 559.0 L460.2 559.0 L461.0 559.0 L462.0 559.0 L462.8 559.19995 L465.6 559.19995 L467.0 559.39996 L470.80002 559.6 L480.40002 559.39996 L482.8 559.6 L485.40002 559.39996 L501.8 560.4 L509.19998 560.2 L525.60004 560.4 L529.0 560.60004 L536.2 560.4 L549.0 560.60004 L552.8 560.80005 L559.0 560.80005 L565.2 560.60004 L567.8 560.80005 L570.0 560.60004 L572.4 560.80005 L574.0 560.80005 L575.4 561.0 L585.2 560.60004 L590.0 560.4 L596.0 560.4 L597.6 560.4 L600.2 560.80005 L612.4 560.80005 L613.8 560.80005 L617.0 561.0 L625.0 562.2 L627.2 562.4 L631.0 562.6 L635.60004 562.6 L637.4 563.0 L644.80005 563.4 L649.0 563.6 L668.6 564.0 L675.80005 564.19995 L680.0 564.19995 L681.2 564.39996 L688.2 564.0 L695.80005 564.0 L696.8 564.0 L697.2 564.0 L697.60004 564.0 L697.60004 563.6 L697.2 563.4 L696.8 563.0 L696.2 562.6 L696.2 562.6" stroke="rgb(25,25,25)" stroke-width="1" fill="none" stroke-linejoin="round" /> <path d="M701.8 562.6 L701.8 562.6 L702.2 562.4 L702.60004 562.4 L702.60004 562.0 L703.0 561.0 L703.2 560.2 L703.2 559.0 L703.6 558.4 L703.6 557.6 L703.6 557.0 L703.6 553.0 L704.0 552.0 L704.0 550.80005 L704.4 548.0 L704.4 541.8 L704.0 540.0 L703.6 536.4 L704.0 534.6 L704.4 524.0 L704.4 521.0 L705.0 520.2 L705.0 514.39996 L705.80005 509.19998 L705.80005 507.59998 L706.60004 504.19998 L707.2 500.80002 L706.8 494.0 L707.2 492.59998 L707.2 491.19998 L707.2 490.0 L707.60004 482.40002 L708.6 475.6 L708.6 474.0 L708.6 472.40002 L709.0 452.8 L709.0 451.4 L709.4 442.2 L709.0 435.2 L709.0 434.0 L709.0 430.40002 L708.2 426.4 L708.2 425.0 L708.0 422.40002 L708.0 420.40002 L707.60004 419.59998 L707.60004 417.59998 L707.2 415.2 L706.8 414.0 L706.8 412.40002 L706.60004 410.6 L706.60004 408.6 L706.60004 407.40002 L706.2 406.4 L706.2 406.0 L706.2 405.2 L706.2 404.0 L705.80005 403.0 L706.2 402.2 L706.2 400.6 L705.80005 400.2 L705.80005 399.0 L705.80005 398.6 L705.80005 397.40002 L705.4 395.80002 L705.4 395.2 L705.0 394.59998 L705.0 394.19998 L704.80005 394.19998 L704.4 394.19998 L703.6 394.0 L702.2 392.8 L702.2 392.8" stroke="rgb(25,25,25)" stroke-width="1" fill="none" stroke-linejoin="round" /> <path d="M704.80005 394.4 L705.0 394.19998 L705.0 394.0 L705.0 394.0 L705.0 393.80002 L705.0 394.0 L705.0 393.6 L705.0 394.0 L705.0 394.0 L705.80005 394.0 L706.2 393.80002 L707.2 393.80002 L707.60004 393.6 L708.6 393.6 L710.0 393.0 L713.2 392.40002 L722.2 391.4 L729.4 391.0 L735.4 390.80002 L740.0 390.80002 L742.60004 390.80002 L747.2 390.2 L752.2 390.0 L758.0 389.4 L768.2 389.19998 L773.0 389.0 L785.0 389.0 L791.2 389.19998 L797.2 389.4 L821.2 389.19998 L827.2 389.4 L831.60004 389.59998 L833.2 390.0 L835.4 389.59998 L842.2 390.0 L843.6 390.2 L855.80005 390.2 L860.0 390.2 L862.2 390.6 L862.60004 390.6 L863.0 390.80002 L865.0 390.80002 L866.2 390.6 L867.2 390.6 L868.2 390.40002 L869.0 390.40002 L868.6 390.2 L867.2 389.59998 L864.80005 389.0 L864.80005 389.0" stroke="rgb(25,25,25)" stroke-width="1" fill="none" stroke-linejoin="round" /> <path d="M869.0 388.80002 L869.0 389.0 L869.0 389.0 L869.0 389.0 L869.0 389.19998 L869.0 390.0 L869.0 390.80002 L869.0 392.2 L869.4 395.2 L869.4 396.0 L869.80005 397.2 L870.0 401.19998 L870.4 409.0 L870.0 417.2 L870.0 423.0 L869.4 429.59998 L869.0 442.40002 L868.6 444.0 L868.6 456.4 L869.0 457.8 L868.6 462.40002 L868.0 470.6 L868.0 476.0 L867.2 491.0 L867.2 506.0 L866.8 518.4 L866.2 524.0 L866.2 527.2 L866.8 534.0 L866.8 537.0 L866.60004 545.80005 L866.2 554.0 L866.2 559.6 L866.2 565.2 L865.80005 578.4 L866.8 592.0 L866.60004 594.6 L867.2 603.8 L867.60004 635.4 L867.60004 640.0 L868.0 642.2 L867.60004 645.4 L868.2 647.60004 L868.2 653.6 L868.6 661.8 L868.6 669.4 L869.0 676.2 L869.4 691.8 L869.4 693.6 L869.80005 695.80005 L870.0 705.4 L870.0 707.60004 L870.0 709.0 L870.4 709.4 L870.4 710.0 L870.4 711.2 L870.80005 711.60004 L870.4 712.60004 L870.80005 713.0 L870.80005 715.80005 L870.80005 717.2 L870.80005 718.6 L870.80005 719.80005 L870.80005 720.80005 L870.80005 723.6 L870.80005 724.4 L870.80005 727.60004 L871.2 730.4 L871.2 735.80005 L871.2 735.80005 L870.80005 735.4 L870.4 734.4 L870.4 734.4" stroke="rgb(25,25,25)" stroke-width="1" fill="none" stroke-linejoin="round" /> <path d="M868.6 730.0 L868.2 730.0 L868.2 730.0 L868.2 729.80005 L868.0 730.0 L867.60004 730.0 L866.8 730.0 L866.2 729.80005 L864.80005 730.0 L863.0 730.0 L860.80005 730.4 L860.0 730.4 L859.0 730.80005 L854.4 730.80005 L850.4 731.60004 L840.0 732.60004 L835.80005 733.0 L828.0 733.2 L822.60004 733.6 L818.0 733.2 L815.80005 733.2 L813.6 733.0 L809.4 732.60004 L796.8 733.0 L795.0 733.2 L791.8 733.2 L790.4 733.6 L789.4 733.6 L788.0 733.6 L784.0 734.0 L779.4 734.0 L775.4 734.0 L772.2 734.4 L769.0 734.4 L766.8 735.0 L763.2 735.0 L744.0 735.0 L739.0 734.80005 L735.4 734.4 L734.0 734.0 L731.8 734.0 L726.60004 734.0 L716.8 734.0 L714.4 734.4 L712.60004 734.0 L706.8 734.4 L697.2 734.4 L694.4 734.0 L670.80005 734.0 L662.60004 734.0 L657.2 734.4 L655.80005 734.4 L650.80005 735.0 L647.60004 735.0 L645.4 735.4 L644.0 735.0 L640.4 735.0 L632.6 734.80005 L627.6 734.4 L620.80005 734.80005 L615.80005 734.80005 L610.80005 735.0 L606.0 735.0 L584.6 734.4 L582.0 734.0 L562.0 734.4 L558.6 734.4 L557.4 734.4 L555.80005 734.80005 L554.0 734.80005 L551.2 735.4 L549.39996 735.4 L547.6 735.80005 L546.4 735.4 L545.80005 735.80005 L538.6 735.80005 L537.2 735.80005 L536.2 735.80005 L535.80005 735.80005 L535.2 736.2 L534.19995 736.2 L534.0 735.80005 L534.0 735.80005 L534.0 735.4 L534.0 735.4" stroke="rgb(25,25,25)" stroke-width="1" fill="none" stroke-linejoin="round" /> <path d="M531.2 734.80005 L531.2 734.80005 L531.2 734.80005 L532.0 734.4 L532.4 734.0 L532.4 734.0 L532.8 733.6 L532.8 733.6 L533.0 733.2 L532.8 728.6 L532.6 727.2 L532.8 725.80005 L532.8 725.0 L532.6 723.6 L532.6 721.60004 L532.4 720.0 L532.4 714.4 L532.2 712.60004 L532.4 707.60004 L532.0 705.80005 L532.0 700.80005 L532.0 698.6 L531.8 690.4 L531.8 686.8 L531.4 685.0 L531.2 683.0 L531.4 681.60004 L531.4 680.0 L531.2 678.6 L531.0 673.0 L531.2 669.0 L531.2 667.2 L531.2 665.4 L531.2 660.80005 L531.2 659.80005 L530.80005 656.60004 L531.4 654.0 L531.2 653.6 L531.8 652.2 L531.4 651.2 L531.2 650.4 L531.4 649.4 L531.4 648.6 L531.4 648.0 L531.0 648.6 L531.4 648.2 L531.0 648.0 L531.2 647.2 L531.0 645.80005 L531.0 645.80005 L531.0 645.80005 L531.0 645.4 L531.0 645.4 L531.0 645.4 L530.80005 645.80005 L531.0 645.4 L530.80005 645.4 L530.0 646.2 L530.2 645.80005 L530.2 645.80005" stroke="rgb(25,25,25)" stroke-width="1" fill="none" stroke-linejoin="round" /> <path d="M528.8 647.2 L528.8 647.2 L529.0 647.2 L529.0 647.2 L529.0 647.2 L529.19995 647.2 L529.19995 647.2 L529.19995 647.2 L529.0 647.60004 L528.6 647.60004 L528.0 647.2 L527.6 647.60004 L525.2 647.60004 L524.0 647.60004 L519.6 648.0 L516.2 648.0 L515.0 648.0 L512.0 647.60004 L510.40002 647.60004 L509.0 647.60004 L506.0 647.60004 L504.19998 647.60004 L496.8 647.60004 L491.8 647.60004 L484.0 647.60004 L477.59998 647.2 L471.4 647.2 L462.2 647.2 L459.19998 646.60004 L455.80002 646.2 L447.8 646.2 L445.80002 646.2 L443.80002 646.2 L441.8 645.80005 L437.59998 646.2 L435.40002 646.60004 L425.0 645.80005 L417.59998 645.4 L402.2 645.4 L400.80002 645.0 L399.4 645.4 L398.4 645.4 L397.0 645.0 L387.40002 645.0 L384.0 645.0 L380.80002 644.4 L377.2 645.4 L375.80002 645.0 L372.40002 645.4 L368.6 645.80005 L364.4 646.2 L361.4 646.2 L360.2 645.80005 L357.40002 645.80005 L356.0 646.2 L350.2 646.60004 L345.40002 646.8 L343.4 646.8 L342.0 646.8 L340.6 646.8 L337.40002 646.60004 L329.59998 646.60004 L328.6 646.8 L321.8 646.8 L320.80002 646.8 L319.4 646.8 L315.40002 647.2 L310.0 647.2 L307.6 647.2 L306.2 647.2 L303.0 646.8 L301.8 647.2 L300.40002 646.8 L299.2 646.8 L298.0 647.2 L296.2 647.2 L294.2 647.60004 L293.4 647.60004 L292.6 647.60004 L291.4 647.60004 L287.0 648.6 L284.4 648.6 L282.19998 649.0 L281.4 649.4 L280.40002 649.4 L280.0 649.80005 L279.4 649.4 L279.4 649.4 L279.2 649.4 L279.2 649.4" stroke="rgb(25,25,25)" stroke-width="1" fill="none" stroke-linejoin="round" /> <path d="M275.40002 646.60004 L275.40002 647.2 L275.0 648.2 L275.0 649.0 L275.40002 649.0 L276.0 648.6 L276.2 648.6 L276.2 648.6 L276.2 648.2 L276.2 648.2 L276.4 648.6 L277.6 649.0 L278.0 648.6 L278.0 649.4 L277.80002 649.80005 L278.4 649.4 L278.6 649.0 L278.6 649.0 L278.8 648.6 L279.4 648.0 L279.2 647.60004 L279.4 646.8 L279.4 645.4 L279.59998 643.0 L279.59998 640.4 L280.0 638.4 L280.40002 630.80005 L280.0 626.4 L281.0 605.4 L282.0 598.6 L282.80002 592.4 L282.6 590.2 L283.0 586.4 L283.0 581.4 L283.0 575.80005 L283.0 573.0 L283.4 570.80005 L284.2 567.6 L285.6 547.4 L286.2 540.2 L286.4 535.60004 L287.19998 527.4 L289.59998 510.80002 L290.0 498.4 L289.4 494.0 L290.0 490.40002 L290.2 484.19998 L289.4 467.40002 L288.8 460.80002 L288.6 459.4 L288.6 458.0 L287.80002 453.6 L287.80002 451.19998 L287.19998 439.59998 L287.0 437.59998 L287.0 436.0 L286.0 432.2 L285.6 430.80002 L285.6 429.4 L285.2 427.2 L285.40002 425.40002 L285.2 422.0 L284.4 334.4 L284.2 411.19998 L283.6 409.19998 L283.0 408.4 L283.4 407.8 L282.19998 402.0 L282.19998 401.4 L282.19998 400.80002 L282.0 400.40002 L282.0 400.0 L281.2 397.40002 L280.40002 395.6 L280.40002 395.2 L280.40002 395.0 L280.40002 395.0 L280.40002 395.2 L280.40002 395.2 L280.40002 395.0 L280.40002 395.2 L280.0 395.2 L279.4 395.40002 L278.4 395.80002 L278.4 395.80002" stroke="rgb(25,25,25)" stroke-width="1" fill="none" stroke-linejoin="round" /> </svg>